<?xml version="1.0" encoding="UTF-8"?> <!-- Generator: Adobe Illustrator 25.4.1, SVG Export Plug-In . SVG Version: 6.00 Build 0) --> <svg xmlns="http://www.w3.org/2000/svg" xmlns:xlink="http://www.w3.org/1999/xlink" version="1.1" id="Layer_1" x="0px" y="0px" viewBox="0 0 991.2 375.7" style="enable-background:new 0 0 991.2 375.7;" xml:space="preserve"> <style type="text/css"> .st0{fill:#FFFFFF;} </style> <g id="Layer_9" transform="translate(-3.85 -4.453)"> <path id="Path_149" class="st0" d="M207.8,160.2c-11.8,1.9-24-0.2-34.5-6c-3.4-1.9-6.7-4.2-9.7-6.7c-0.7-0.6-1.8-0.6-2.5,0 c-3,2.6-6.2,4.8-9.7,6.7c-10.5,5.8-22.6,7.9-34.5,6c-1-0.1-2,0.5-2.2,1.5c-4.5,20.4-5.1,41.5-1.7,62.2c1.3,8.2,3.4,16.3,6.2,24.1 c7.6,20.6,23.8,27.1,42.2,36c0.5,0.3,1.2,0.3,1.7,0c18.4-8.9,34.6-15.4,42.2-36c2.8-7.8,4.9-15.9,6.2-24.1 c3.4-20.6,2.8-41.7-1.7-62.1C209.7,160.7,208.8,160.1,207.8,160.2z M162.3,282.3l-3.3-1.6l1.5,0.7l1.5,0.7L162.3,282.3l2.9-1.4 l0.7-0.3L162.3,282.3z"></path> <path id="Path_150" class="st0" d="M362.6,237.7c0,11.6-5.8,17.4-17.3,17.4h-61.9c-11.3,0-17-5.8-16.9-17.4V81.9 c0-11.7,5.6-17.5,16.9-17.5h61.9c11.5,0,17.3,5.8,17.3,17.5V237.7z M334.1,230.6V88.9H295v141.7L334.1,230.6z"></path> <path id="Path_151" class="st0" d="M466.1,230.3c0.8,8.5-3.4,16.7-10.7,21c-7.4,3.3-15.5,4.7-23.6,4.3c-2.4,0-5.9-0.1-10.3-0.2 c-4.4-0.2-7.6-0.2-9.6-0.2v45h-27.9V132H412v4.5c6.5-1,13-2,19.5-3c6.4-1.1,13-1.8,19.5-2c10.1,0,15.2,5,15.2,15L466.1,230.3z M438.1,222.7v-67.4l-26.2,0.5v76.1h17.3C435.2,231.9,438.1,228.8,438.1,222.7L438.1,222.7z"></path> <path id="Path_152" class="st0" d="M565.4,239.8c0,10.2-5.2,15.2-15.7,15.2h-48.1c-10.5,0-15.7-5.1-15.7-15.2v-92.6 c0-10.1,5.2-15.2,15.7-15.2h48.1c10.5,0,15.7,5.1,15.7,15.2v45.2l-7.7,7.7h-45.2v34.5h26.2v-20.5h26.7L565.4,239.8z M538.8,181.9 v-29.5h-26.2v29.5H538.8z"></path> <path id="Path_153" class="st0" d="M667.8,255h-28v-99.8l-26.2,0.5V255h-27.9V132h27.9v4.5c6.5-1,13-2,19.4-3 c6.5-1.2,13-1.8,19.6-2c10.1,0,15.2,5,15.2,15L667.8,255z"></path> <path id="Path_154" class="st0" d="M780.6,237.7c0,11.6-5.8,17.4-17.3,17.4h-57.4c-11.4,0-17.2-5.8-17.2-17.4v-45.5h28.5V231h34.8 v-37.4l-57.1-54.1c-4.1-4-6.4-9.5-6.2-15.2V81.9c0-11.7,5.7-17.5,17.2-17.5h57.4c11.5,0,17.3,5.8,17.3,17.3v42.6h-28.5v-36h-34.8 v34.5l57.1,53.9c4.2,4,6.5,9.7,6.2,15.5V237.7z"></path> <path id="Path_155" class="st0" d="M894.6,237.7c0,11.6-5.8,17.4-17.3,17.4h-57.4c-11.4,0-17.2-5.8-17.2-17.4v-45.5h28.5V231h34.8 v-37.4l-57.2-54.1c-4.1-4-6.4-9.5-6.2-15.2V81.9c0-11.7,5.7-17.5,17.2-17.5h57.4c11.5,0,17.3,5.8,17.3,17.3v42.6h-28.5v-36h-34.8 v34.5l57.1,53.9c4.2,4,6.5,9.7,6.2,15.5L894.6,237.7z"></path> <path id="Path_156" class="st0" d="M995.1,89.6h-49.3V146h42.2v24.7h-42.2V255h-28.5V64.4h77.8L995.1,89.6z"></path> <path id="Path_157" class="st0" d="M289.7,351.5c0.2,3.3-0.9,6.6-3.1,9.1c-2.2,2.2-5.2,3.4-8.3,3.3c-3.1,0.1-6.1-1-8.2-3.3 c-2.1-2.5-3.2-5.8-3-9.1v-9.1c-0.2-3.3,0.9-6.6,3-9.1c2.1-2.2,5.1-3.4,8.2-3.3c3.1-0.1,6.1,1.1,8.3,3.3c2.2,2.5,3.3,5.8,3.1,9.1 L289.7,351.5z M285,342.4c0.2-2.3-0.5-4.6-1.8-6.5c-1.2-1.5-3.1-2.3-5-2.2c-1.9-0.1-3.7,0.7-4.9,2.2c-1.2,1.9-1.8,4.2-1.7,6.5v9.1 c-0.2,2.3,0.4,4.6,1.7,6.6c1.2,1.5,3,2.3,4.9,2.2c1.9,0.1,3.8-0.7,5-2.2c1.3-1.9,1.9-4.3,1.7-6.6L285,342.4z"></path> <path id="Path_158" class="st0" d="M299.7,350.4v13H295v-33h11.1c5.5-0.5,10.3,3.6,10.8,9.1c0.5,5.5-3.6,10.3-9.1,10.8 c-0.5,0-1.1,0-1.7,0L299.7,350.4z M299.7,346.9h6.4c1.6,0.1,3-0.6,4-1.8c0.9-1.3,1.4-3,1.4-4.6c0.1-1.7-0.4-3.3-1.4-4.7 c-0.9-1.2-2.4-1.9-4-1.9h-6.4V346.9z"></path> <path id="Path_159" class="st0" d="M338.5,348.1H326v11.8h14.5v3.5h-19.2v-33h19.1v3.5H326v10.7h12.5L338.5,348.1z"></path> <path id="Path_160" class="st0" d="M367.2,363.4h-4.7l-12.8-24.5l-0.1,0.1v24.5h-4.7v-33h4.7l12.8,24.4l0.1-0.1v-24.4h4.7 L367.2,363.4z"></path> <path id="Path_161" class="st0" d="M399.5,355.1c0.1-1.4-0.4-2.8-1.3-3.8c-1.3-1.2-2.9-2.1-4.7-2.6c-2.7-0.7-5.2-2-7.4-3.7 c-1.7-1.5-2.7-3.8-2.6-6.1c-0.1-2.4,1-4.8,2.9-6.4c2.1-1.7,4.7-2.6,7.4-2.5c2.8-0.1,5.5,0.9,7.5,2.9c1.9,1.8,2.9,4.4,2.8,7v0.1 h-4.5c0.1-1.7-0.5-3.4-1.5-4.7c-2.3-2.3-5.9-2.4-8.3-0.3c-1,1-1.5,2.4-1.4,3.8c0,1.3,0.5,2.6,1.5,3.5c1.5,1.2,3.2,2.1,5,2.6 c2.6,0.7,5,2,7,3.8c1.6,1.7,2.5,3.9,2.4,6.3c0.1,2.5-1,4.8-2.8,6.4c-2.1,1.7-4.8,2.5-7.5,2.4c-2.9,0.1-5.6-0.9-7.9-2.6 c-2.3-1.7-3.5-4.5-3.3-7.4l0.1-0.1h4.5c-0.2,1.9,0.5,3.7,1.8,5c1.3,1.1,3,1.7,4.8,1.6c1.5,0.1,3-0.4,4.1-1.4 C399.1,358,399.6,356.6,399.5,355.1z"></path> <path id="Path_162" class="st0" d="M430.7,351.5c0.2,3.3-0.9,6.6-3.1,9.1c-2.2,2.2-5.2,3.4-8.3,3.3c-3.1,0.1-6.1-1-8.2-3.3 c-2.1-2.5-3.2-5.8-3-9.1v-9.1c-0.2-3.3,0.9-6.6,3-9.1c2.1-2.2,5.1-3.4,8.2-3.3c3.1-0.1,6.1,1.1,8.3,3.3c2.2,2.5,3.3,5.8,3.1,9.1 L430.7,351.5z M426,342.4c0.2-2.3-0.5-4.6-1.8-6.5c-1.2-1.5-3.1-2.3-5-2.2c-1.9-0.1-3.7,0.7-4.9,2.2c-1.3,1.9-1.8,4.2-1.7,6.5v9.1 c-0.2,2.3,0.4,4.6,1.7,6.6c1.2,1.5,3,2.3,4.9,2.2c1.9,0.1,3.8-0.7,5-2.2c1.3-1.9,1.9-4.3,1.7-6.6L426,342.4z"></path> <path id="Path_163" class="st0" d="M457.1,330.5v22.8c0.2,2.9-0.9,5.8-3,7.9c-2.2,1.9-5,2.9-7.8,2.7c-2.8,0.1-5.6-0.9-7.7-2.7 c-2.1-2.1-3.2-4.9-2.9-7.9v-22.8h4.7v22.8c-0.1,1.9,0.4,3.8,1.6,5.3c1.1,1.2,2.7,1.9,4.4,1.8c1.7,0.1,3.3-0.5,4.5-1.7 c1.2-1.5,1.8-3.4,1.6-5.4v-22.8H457.1z"></path> <path id="Path_164" class="st0" d="M467.7,349.2v14.2H463v-32.9h10.5c2.7-0.2,5.3,0.7,7.4,2.4c1.8,1.8,2.8,4.4,2.6,7 c0,1.6-0.4,3.1-1.2,4.5c-0.9,1.3-2.1,2.4-3.5,3c1.5,0.4,2.8,1.5,3.6,2.8c0.8,1.5,1.2,3.3,1.1,5v2.9c0,0.9,0.1,1.9,0.3,2.8 c0.2,0.8,0.5,1.5,1.1,2v0.5h-4.8c-0.6-0.6-0.9-1.4-1-2.3c-0.2-1.1-0.2-2.1-0.2-3.2v-2.8c0.1-1.6-0.4-3.1-1.3-4.4 c-0.9-1.1-2.2-1.7-3.5-1.6L467.7,349.2z M467.7,345.7h5.6c1.6,0.1,3.1-0.4,4.2-1.5c1-1.2,1.5-2.7,1.4-4.3c0.1-1.6-0.4-3.1-1.3-4.4 c-1-1.1-2.5-1.7-4-1.6h-5.8L467.7,345.7z"></path> <path id="Path_165" class="st0" d="M509.9,353.4l0.1,0.1c0.2,2.8-0.8,5.6-2.7,7.6c-4.5,3.8-11.2,3.6-15.5-0.6 c-2.1-2.5-3.2-5.8-3-9.1v-9.1c-0.2-3.3,0.9-6.5,2.9-9.1c2-2.2,4.9-3.4,7.8-3.3c2.8-0.2,5.5,0.8,7.6,2.6c1.9,2.1,2.9,4.9,2.7,7.7 l-0.1,0.1h-4.4c0.1-1.9-0.4-3.8-1.5-5.3c-1.1-1.2-2.7-1.9-4.4-1.7c-1.8-0.1-3.5,0.8-4.5,2.3c-1.2,2-1.7,4.2-1.6,6.5v9.3 c-0.1,2.3,0.4,4.6,1.6,6.6c1,1.5,2.8,2.4,4.6,2.3c1.6,0.1,3.2-0.5,4.3-1.7c1-1.6,1.5-3.4,1.4-5.3L509.9,353.4z"></path> <path id="Path_166" class="st0" d="M532.2,348.1h-12.5v11.8h14.5v3.5H515v-33h19.1v3.5h-14.4v10.7h12.5L532.2,348.1z"></path> <path id="Path_167" class="st0" d="M564.4,355.1c0-1.4-0.4-2.8-1.4-3.8c-1.3-1.2-2.9-2.1-4.7-2.6c-2.7-0.7-5.2-2-7.4-3.7 c-1.7-1.5-2.7-3.8-2.6-6.1c-0.1-2.4,1-4.8,2.9-6.4c2.1-1.7,4.7-2.6,7.4-2.5c2.8-0.1,5.5,0.9,7.5,2.9c1.9,1.8,2.9,4.4,2.8,7v0.1 h-4.5c0.1-1.7-0.5-3.4-1.5-4.7c-2.3-2.3-5.9-2.4-8.3-0.3c-1,1-1.5,2.4-1.4,3.8c0,1.3,0.5,2.6,1.5,3.5c1.5,1.2,3.2,2.1,5.1,2.6 c2.6,0.7,5,2,7,3.8c1.6,1.7,2.5,3.9,2.4,6.3c0.1,2.5-1,4.8-2.9,6.4c-2.1,1.7-4.8,2.5-7.5,2.4c-2.8,0-5.6-0.9-7.9-2.6 c-2.3-1.7-3.5-4.5-3.3-7.4v-0.1h4.5c-0.2,1.9,0.5,3.7,1.8,5c1.3,1.1,3,1.7,4.8,1.6c1.5,0.1,3-0.4,4.1-1.4 C563.9,358,564.5,356.6,564.4,355.1z"></path> <path id="Path_168" class="st0" d="M591.4,348.1h-12.5v11.8h14.5v3.5h-19.2v-33h19.1v3.5h-14.4v10.7h12.5V348.1z"></path> <path id="Path_169" class="st0" d="M617.7,353.4l0.1,0.1c0.2,2.8-0.8,5.6-2.7,7.6c-4.5,3.8-11.2,3.6-15.5-0.6 c-2.1-2.5-3.2-5.8-3-9.1v-9.1c-0.2-3.3,0.9-6.5,2.9-9.1c2-2.2,4.9-3.4,7.8-3.3c2.8-0.2,5.5,0.8,7.6,2.6c1.9,2.1,2.9,4.9,2.7,7.7 l-0.1,0.1h-4.4c0.1-1.9-0.4-3.8-1.5-5.3c-1.1-1.2-2.7-1.9-4.4-1.7c-1.8-0.1-3.5,0.8-4.5,2.3c-1.2,2-1.7,4.2-1.6,6.5v9.3 c-0.1,2.3,0.4,4.6,1.6,6.6c1,1.5,2.8,2.4,4.6,2.3c1.6,0.1,3.2-0.5,4.3-1.7c1-1.6,1.5-3.4,1.4-5.3L617.7,353.4z"></path> <path id="Path_170" class="st0" d="M643.8,330.5v22.8c0.2,2.9-0.9,5.8-3,7.9c-2.2,1.9-5,2.9-7.8,2.7c-2.8,0.1-5.6-0.9-7.7-2.7 c-2.1-2.1-3.2-4.9-2.9-7.9v-22.8h4.7v22.8c-0.1,1.9,0.4,3.8,1.6,5.3c1.1,1.2,2.7,1.9,4.4,1.8c1.7,0.1,3.3-0.5,4.5-1.7 c1.2-1.5,1.8-3.4,1.6-5.4v-22.8H643.8z"></path> <path id="Path_171" class="st0" d="M654.4,349.2v14.2h-4.7v-32.9h10.5c2.7-0.2,5.3,0.7,7.4,2.4c1.8,1.8,2.8,4.4,2.6,7 c0,1.6-0.4,3.1-1.2,4.5c-0.9,1.3-2.1,2.4-3.5,3c1.5,0.4,2.8,1.5,3.6,2.8c0.8,1.5,1.2,3.3,1.1,5v2.9c0,0.9,0.1,1.9,0.3,2.8 c0.2,0.8,0.5,1.5,1.1,2v0.5h-4.8c-0.6-0.6-0.9-1.4-1-2.3c-0.1-1.1-0.2-2.1-0.2-3.2v-2.8c0.1-1.6-0.4-3.1-1.3-4.4 c-0.9-1.1-2.2-1.7-3.5-1.6L654.4,349.2z M654.4,345.7h5.6c1.6,0.1,3.1-0.4,4.2-1.5c1-1.2,1.5-2.7,1.4-4.3c0.1-1.6-0.4-3.1-1.3-4.4 c-1-1.1-2.5-1.7-4-1.6h-5.8L654.4,345.7z"></path> <path id="Path_172" class="st0" d="M681.6,363.4h-4.7v-33h4.7V363.4z"></path> <path id="Path_173" class="st0" d="M707.4,333.9h-8.7v29.5H694v-29.5h-8.6v-3.5h22L707.4,333.9z"></path> <path id="Path_174" class="st0" d="M721.2,346.5h0.1l6.9-16h5.2l-9.9,21.1v11.8h-4.7v-12.1l-9.8-20.8h5.3L721.2,346.5z"></path> <path id="Path_175" class="st0" d="M764.9,348.7h-12.5v14.7h-4.7v-33h19.2v3.5h-14.5v11.3h12.6V348.7z"></path> <path id="Path_176" class="st0" d="M792.7,351.5c0.2,3.3-0.9,6.6-3.1,9.1c-2.2,2.2-5.2,3.4-8.3,3.3c-3.1,0.1-6.1-1-8.2-3.3 c-2.1-2.5-3.2-5.8-3-9.1v-9.1c-0.2-3.3,0.9-6.6,3-9.1c2.1-2.2,5.1-3.4,8.2-3.3c3.1-0.1,6.1,1.1,8.3,3.3c2.2,2.5,3.3,5.8,3.1,9.1 L792.7,351.5z M788,342.4c0.2-2.3-0.5-4.6-1.8-6.5c-1.2-1.5-3.1-2.3-5-2.2c-1.9-0.1-3.7,0.7-4.9,2.2c-1.3,1.9-1.8,4.2-1.7,6.5v9.1 c-0.2,2.3,0.4,4.6,1.7,6.6c1.2,1.5,3,2.3,4.9,2.2c1.9,0.1,3.8-0.7,5-2.2c1.3-1.9,1.9-4.3,1.7-6.6L788,342.4z"></path> <path id="Path_177" class="st0" d="M819,330.5v22.8c0.2,2.9-0.9,5.8-3,7.9c-2.2,1.9-5,2.9-7.8,2.7c-2.8,0.1-5.6-0.9-7.7-2.7 c-2.1-2.1-3.2-4.9-3-7.9v-22.8h4.7v22.8c-0.1,1.9,0.4,3.8,1.6,5.3c1.1,1.2,2.7,1.9,4.4,1.8c1.7,0.1,3.3-0.5,4.5-1.7 c1.2-1.5,1.8-3.4,1.6-5.4v-22.8H819z"></path> <path id="Path_178" class="st0" d="M847.3,363.4h-4.7l-12.8-24.5l-0.1,0.1v24.5H825v-33h4.7l12.8,24.4l0.1-0.1v-24.4h4.7 L847.3,363.4z"></path> <path id="Path_179" class="st0" d="M853.9,363.4v-33h9.3c3.4-0.1,6.6,1.4,8.8,4c2.3,2.9,3.5,6.5,3.4,10.2v4.7 c0.2,3.7-1.1,7.3-3.4,10.2c-2.2,2.6-5.4,4-8.8,3.9L853.9,363.4z M858.6,333.9v25.9h4.4c2.3,0,4.4-1.1,5.6-3c1.4-2.3,2.1-5,2-7.7 v-4.7c0.1-2.7-0.6-5.3-2-7.6c-1.2-1.9-3.3-3-5.6-3L858.6,333.9z"></path> <path id="Path_180" class="st0" d="M895.4,355.1h-10.7l-2.5,8.3h-4.8l10.4-33h4.6l10.3,33h-4.8L895.4,355.1z M885.8,351.4h8.6 l-4.2-14.4H890L885.8,351.4z"></path> <path id="Path_181" class="st0" d="M923,333.9h-8.7v29.5h-4.7v-29.5H901v-3.5h22V333.9z"></path> <path id="Path_182" class="st0" d="M932.1,363.4h-4.7v-33h4.7V363.4z"></path> <path id="Path_183" class="st0" d="M960.4,351.5c0.2,3.3-0.9,6.6-3.1,9.1c-2.2,2.2-5.2,3.4-8.3,3.3c-3.1,0.1-6.1-1-8.2-3.3 c-2.1-2.5-3.2-5.8-3-9.1v-9.1c-0.2-3.3,0.9-6.6,3-9.1c2.1-2.2,5.1-3.4,8.2-3.3c3.1-0.1,6.1,1.1,8.3,3.3c2.2,2.5,3.3,5.8,3.1,9.1 L960.4,351.5z M955.7,342.4c0.2-2.3-0.5-4.6-1.8-6.5c-1.2-1.5-3.1-2.3-5-2.2c-1.9-0.1-3.7,0.7-4.9,2.2c-1.3,1.9-1.9,4.2-1.7,6.5 v9.1c-0.2,2.3,0.4,4.6,1.7,6.6c1.2,1.5,3,2.3,4.9,2.2c1.9,0.1,3.8-0.7,5-2.2c1.3-1.9,1.9-4.3,1.7-6.6L955.7,342.4z"></path> <path id="Path_184" class="st0" d="M988.1,363.4h-4.7l-12.8-24.5l-0.1,0.1v24.5h-4.7v-33h4.7l12.8,24.4l0.1-0.1v-24.4h4.7 L988.1,363.4z"></path> <path id="Path_185" class="st0" d="M217.2,152.4c-0.3-1-0.9-1.9-1.8-2.4c-0.2-0.1-0.5-0.2-0.7-0.3c-0.7-0.2-1.5-0.2-2.3,0 c-10.1,3-20.8,2.5-30.5-1.6c-1.4-0.6-2.8-1.3-4.1-2c-3.3-1.8-6.5-4.1-9.3-6.7c-1.1-1-2.2-2.1-3.1-3.2c-0.5-0.7-1.3-1.2-2.2-1.4 c-0.3-0.1-0.6-0.1-0.9-0.1c-1.2,0-2.3,0.5-3.1,1.5c-1,1.2-2,2.2-3.1,3.2l-0.6,0.6c-3.3-1.5-7-2.1-10.6-1.8 c-2.3-1.7-4.6-3.2-7.1-4.6c-0.1-2.9-1.3-5.6-3.4-7.6c-1.7-1.6-3.9-2.6-6.3-2.8c1.2-6.9,3.1-13.7,5.5-20.3 c2.6-7.4,5.7-14.6,8.9-21.7c1.8-3.9,3.6-7.8,5.5-11.7c15.4-13.5,16.9-37,3.4-52.4c-13.5-15.4-37-16.9-52.4-3.4 c-8,7-12.6,17.1-12.6,27.8c0,1.5,0.1,2.9,0.3,4.3c-0.7,1.2-1.5,2.3-2.5,3.3c-1.4,1.5-2.9,2.9-4.4,4.3c-2.5,2.3-5.2,4.5-7.8,6.7 l-2.1,1.7c-3.1,2.5-6.3,5-9.1,7.7c-2.3,1.9-3.9,4.5-4.6,7.4c-0.1,0.8,0,1.5,0.3,2.2c1.7,5,8.9,4.7,13.1,4.4 c1.7-0.1,3.4-0.3,5.1-0.6l0.6,0.1c8.8,0.8,17.6-0.3,25.9-3.3c3.4-1,6.8-2,10.1-3.2c2.4,0.9,5,1.5,7.5,1.8 c-4.3,6.1-8.4,12.4-12.1,18.9c-2.3,3.9-4.4,8-6.5,12.1c-1.7,3.6-3.4,7.2-4.8,11c-0.7,0-1.4,0-2.1,0.1c-7.2,1.2-9.6,5.8-10.2,12.4 c-4.2,1.2-8.2,2.9-12,5c-4.6,2.5-8.9,5.4-13.1,8.5c-4.5,3.4-8.8,7.1-12.9,11c-3.4,3.2-6.6,6.6-9.5,10.3c-2.2,2.8-4.5,5.5-6.6,8.3 c-1.8,2.2-3.1,4.8-3.9,7.5c-0.7,5.8,0.5,11.6,3.4,16.6c2.1,4.6,4.6,9.1,7.5,13.3l0.1,0.2c-1.1,0.3-2,1.1-2.5,2 c-0.5,0.8-0.8,1.8-0.8,2.8c-2-0.1-3.8,1-4.8,2.7c-0.9,2.3-0.4,4.9,1.3,6.6c0.7,1,1.6,1.9,2.4,2.7c2.7,2.6,5.6,5.1,8.6,7.4 c2.6,2,5.3,4,8.1,6c0.7,0.8,1.6,1.5,2.5,2c0.6,0.4,1.2,0.8,1.8,1.1L53,247c0.3,0.2,0.7,0.4,1.1,0.6c2.8,1.8,6.3,2.3,9.5,1.4 c1.6-0.8,3.2-1.7,4.7-2.7c1.3,5.8,3.9,11.3,7.6,15.9c1.5,1.9,3.2,3.5,5.1,5l0,0c0.4,4.1,3.3,7.5,7.3,8.6c2.4,8.2,4.9,16.4,7.3,24.5 c-1.3,1.7-2.3,3.6-2.8,5.7v0.1c-2.8-0.3-5.7-0.5-8.5-0.6c-3.1-0.2-6.3-0.3-9.4-0.4c-2.6-0.1-5.3-0.2-8-0.1c-2.5,0-4.9,0.3-7.3,0.7 h-0.8l-0.2,0.1l-0.2,0.1l-0.4,0.1l-0.4,0.1l-0.4,0.1l-0.4,0.1l-0.4,0.1l-0.4,0.1l-0.4,0.1l-0.4,0.1l-0.4,0.1l-0.4,0.1l-0.4,0.1 l-0.4,0.1l-0.4,0.1l-0.4,0.2l-0.4,0.2l-0.4,0.2l-0.4,0.2l-0.4,0.2l-0.4,0.2l-0.4,0.2l-0.4,0.2l-0.4,0.2l-0.4,0.2l-0.4,0.2l-0.4,0.2 l-0.4,0.2l-0.4,0.2l-0.4,0.2l-0.4,0.2l-0.4,0.2l-0.4,0.2l-0.4,0.2l-0.3,0.2l-0.3,0.2l-0.3,0.3l-0.3,0.3l-0.3,0.3l-0.3,0.3l-0.3,0.3 l-0.3,0.3l-0.3,0.3l-0.3,0.3l-0.3,0.3l-0.3,0.3l-0.3,0.3l-0.3,0.3l-0.3,0.3l-0.3,0.3l-0.3,0.3l-0.3,0.3l-0.2,0.4l-0.2,0.4l-0.2,0.4 l-0.2,0.4l-0.2,0.4l-0.2,0.4c-0.1,0.1-0.1,0.3-0.2,0.4s-0.1,0.3-0.2,0.4l-0.2,0.4l-0.2,0.4l-0.2,0.4l-0.2,0.4l-0.1,0.4 c-0.1,0.2-0.1,0.3-0.1,0.5c-0.6,2.2-1.2,4.4-1.8,6.6c-0.1,0.5-0.2,1.1-0.1,1.6H5.7c-1,0-1.9,0.8-1.9,1.9c0,1,0.8,1.9,1.9,1.9h134.9 c1,0,1.9-0.8,1.9-1.9c0-1-0.8-1.9-1.9-1.9h-21.1c0.3-2.7,0.4-5.5,0.4-8.2c-0.1-3-0.3-5.9-0.9-8.8c-0.7-5.2-3.1-10.1-7-13.7 c-0.4-0.4-0.9-0.7-1.4-1l-5.8-23.9c2-1.3,3.5-3.4,4-5.8c4.1,1,8.4,1.5,12.6,1.5h0.3c0.9,0.9,1.7,1.8,2.6,2.7l0.2,0.2 c0.9,0.9,1.8,1.7,2.8,2.5l0.2,0.1c1,0.8,1.9,1.6,3,2.3l0.1,0.1c0.9,0.7,1.8,1.3,2.8,1.9l0.5,0.3c0.8,0.6,1.7,1.1,2.6,1.6l1.3,0.8 c0.5,0.3,1,0.6,1.5,0.9c0.9,0.5,1.7,1,2.6,1.4c0.4,0.2,0.7,0.4,1.1,0.6l1.7,0.9l1.8,0.9l0.9,0.5c1,3.6,2.1,7.2,3.1,10.9 c1.1,4,2.2,8.1,3.3,12.1c-0.5,0.3-0.9,0.7-1.2,1.1c-1.4,2.2-1.8,4.9-0.9,7.4c0.4,1.8,0.8,3.5,1.1,5.3c-0.4,0.4-0.7,0.9-1,1.3 c-2.3,1.8-3.6,4.5-3.7,7.3v0.3c-0.2,0.8-0.4,1.5-0.6,2.3c-0.2,4.9,1.3,9.6,4.4,13.4c1.1,1.7,2.2,3.3,3.3,4.9 c0.1,0.5,0.3,0.9,0.6,1.3c5.6,9.5,13.9,17.3,23.8,22.2c6.2,2.8,13.3,3.3,19.8,1.5c3.6-1,6.8-3.1,9-6.1c1.4-2,2.4-4.3,2.7-6.7 c0.5-3.6,0-7.2-1.4-10.5c-3.4-7.4-8.8-13.7-15.7-18.2c-6-5.8-12.4-11.2-19.1-16.3c-0.1-3.6-1.1-7.2-2.7-10.4 c-0.9-1.5-2.4-2.7-4.1-3.1l-2.9-14.6l0.2-0.1c3.3-1.5,6.5-3,9.5-4.5l0.4-0.2l0.7-0.3c1.2-0.6,2.4-1.2,3.5-1.7l1.2-0.6 c1.2-0.6,2.4-1.2,3.5-1.9l0.6-0.3c0.2-0.1,0.4-0.2,0.6-0.3c1-0.6,2.1-1.2,3-1.8l0.9-0.6c1.1-0.7,2.1-1.4,3.1-2.1l0.7-0.5 c1.1-0.8,2.1-1.6,3.2-2.4l0.5-0.4c1.1-0.9,2.1-1.8,3.1-2.7l0.2-0.2l0.1-0.1c0.9-0.9,1.9-1.9,2.7-2.9l0.2-0.3c0.9-1,1.7-2,2.5-3.1 l0.2-0.3c0.8-1,1.5-2.1,2.2-3.3l0.3-0.4c0.7-1.1,1.3-2.2,1.9-3.3c0-0.1,0.1-0.2,0.1-0.3l0.1-0.3c0.7-1.3,1.4-2.7,2-4.2 c0.1-0.2,0.2-0.5,0.3-0.7c0.6-1.3,1.1-2.7,1.7-4.2c0.1-0.3,0.2-0.6,0.4-1c0.5-1.4,0.9-2.7,1.4-4.2c0.1-0.4,0.2-0.7,0.3-1.1 c0.4-1.4,0.8-2.8,1.2-4.3c0-0.1,0-0.1,0.1-0.2c1.8-7.1,3.2-14.4,4-21.7c0.8-7.4,1.2-14.8,1.1-22.2 C222.8,180.5,220.9,166.2,217.2,152.4z M168.4,312.4c0.2,0.2,0.4,0.5,0.6,0.8c1.3,3.3,2.1,6.8,2.1,10.3l1.3,1l0.4,0.3 c0.4,0.3,0.7,0.5,1.1,0.8l0.6,0.4l1.2,1l0.5,0.4c1.2,1,2.6,2,4,3.2l0.6,0.5l1.5,1.3l0.7,0.6l1.6,1.4l0.7,0.6c0.8,0.7,1.5,1.3,2.2,2 h-0.2c-1-0.1-2.1-0.2-3.1-0.2c-10.5,0.5-20.2,5.5-26.8,13.7c-2.3-3-4.2-6.3-5.6-9.8c0.9,0.9,2.1,1.5,3.4,1.7c3.7,0.4,6.9-3,7.2-7.7 c0.5-3.9-1.8-7.7-5.5-9c-1-7.4-3.8-12,0.5-12c1.9,0,4.1,11.3,4.1,11.3l7.1-1.9l-2.1-10.5c0,0,0.3-0.7,0.9-0.7l0,0 c0.1,0,0.2,0.1,0.4,0.1l0.1,0.1h0.1c0.1,0.1,0.2,0.2,0.3,0.3C168.3,312.4,168.4,312.3,168.4,312.4z M172,342.7 c0.3-0.2,0.6-0.3,0.9-0.4c0.3-0.1,0.6-0.3,0.8-0.4l1.2-0.5l0.8-0.3c0.5-0.2,1-0.3,1.5-0.5l0.6-0.1c0.7-0.2,1.4-0.3,2.1-0.5l0,0 c0.6-0.1,1.2-0.2,1.8-0.2c6.3,4.7,11.5,10.8,15.1,17.9c3,5.2,3.9,11.4,2.4,17.3c-0.3,0.1-0.6,0.2-0.9,0.3c-0.3,0.1-0.9,0.2-1.4,0.3 h-0.1c-0.6,0.1-1.2,0.2-1.8,0.3h-0.2c-0.7,0.1-1.4,0.2-2,0.2h-2.4c-0.8,0-1.5-0.1-2.3-0.2H188c0.1-0.3,0.2-0.6,0.3-1 c0.1-0.4,0.1-0.6,0.2-0.9c0.1-0.3,0.1-0.8,0.1-1.2c0-0.3,0-0.6,0-0.9c0-0.4,0-0.8,0-1.2v-0.9c0-0.3-0.1-0.8-0.1-1.2 c-0.1-0.4-0.1-0.6-0.1-0.9c-0.1-0.3-0.2-0.8-0.3-1.2c-0.1-0.4-0.1-0.6-0.2-0.9s-0.3-0.9-0.4-1.3c-0.1-0.3-0.2-0.5-0.3-0.8 c-0.2-0.5-0.3-0.9-0.5-1.4c-0.1-0.2-0.2-0.5-0.3-0.7c-0.3-0.7-0.6-1.4-0.9-2c-0.4-0.8-0.9-1.7-1.4-2.5l-0.2-0.4 c-0.5-0.8-0.9-1.5-1.4-2.3l-0.3-0.4c-0.5-0.7-1-1.5-1.5-2.2l-0.2-0.3c-0.5-0.7-1.1-1.4-1.6-2l-0.1-0.1c-0.5-0.7-1.1-1.3-1.6-1.9 c-0.1-0.1-0.2-0.2-0.3-0.3c-0.5-0.6-1-1.1-1.5-1.6l-0.3-0.3c-0.5-0.5-1-0.9-1.4-1.4l-0.2-0.1c-0.5-0.4-0.9-0.8-1.3-1.1L172,342.7 L172,342.7L172,342.7z M186,339.7h0.3c0.7,0,1.3,0.1,2,0.2l0.5,0.1l0,0c0.9,0.1,1.7,0.3,2.6,0.6c17.1,11.8,19,25,12.6,31.4l0,0 c-0.4,0.4-0.8,0.8-1.3,1.1l-0.1,0.1l0,0c0.1-0.7,0.2-1.3,0.3-2v-3c0-0.6-0.1-1.1-0.2-1.7c0-0.2,0-0.4-0.1-0.6 c-0.1-0.8-0.3-1.5-0.5-2.2c0-0.1-0.1-0.2-0.1-0.4c-0.2-0.6-0.4-1.2-0.6-1.9l-0.2-0.7c-0.2-0.5-0.4-1-0.6-1.6 c-0.1-0.2-0.2-0.5-0.3-0.7c-0.3-0.7-0.6-1.4-1-2.1c-0.4-0.7-0.8-1.6-1.3-2.4c-0.1-0.2-0.2-0.4-0.3-0.5c-0.5-0.8-0.9-1.5-1.4-2.2 l-0.2-0.3c-0.5-0.7-0.9-1.3-1.4-1.9c-0.1-0.1-0.2-0.3-0.3-0.4c-0.5-0.7-1-1.3-1.6-1.9l-0.3-0.4c-0.5-0.6-1-1.1-1.4-1.6l-0.2-0.3 c-0.5-0.6-1-1.1-1.6-1.6l-0.4-0.3c-0.5-0.5-1-1-1.5-1.4l0,0c-0.5-0.5-1-0.8-1.4-1.2L186,339.7L186,339.7L186,339.7z M169.2,344.2 c5.7,4.5,10.4,10.1,13.6,16.6c2.6,4.4,3.4,9.6,2.3,14.5c-0.6-0.2-1.3-0.4-2-0.6l0,0l-0.4-0.1l-0.8-0.3l-0.6-0.2 c-0.3-0.1-0.5-0.2-0.8-0.3l-0.6-0.3l-0.8-0.4l-0.6-0.3l-0.8-0.5l-0.6-0.3c-0.3-0.2-0.6-0.4-0.9-0.5l-0.5-0.3l-1.1-0.7 c-0.1-0.1-0.2-0.2-0.4-0.2c-0.5-0.3-1-0.7-1.4-1.1l-0.4-0.3c-0.4-0.3-0.7-0.6-1-0.9l-0.6-0.5c-0.3-0.3-0.6-0.5-0.9-0.8l-0.6-0.6 l-0.9-0.8l-0.6-0.6l-0.9-0.9l-0.7-0.7l-0.9-1l-0.7-0.8l-0.9-1.1l-0.6-0.8l-0.9-1.2l-0.6-0.8c-0.3-0.5-0.7-0.9-1-1.4 c-0.2-0.2-0.3-0.5-0.5-0.7c-0.5-0.7-1-1.5-1.5-2.2l0.2-0.2c0.2-0.2,0.4-0.4,0.6-0.7s0.6-0.7,1-1.1l0.7-0.8c0.3-0.3,0.6-0.7,1-1 l0.8-0.7c0.3-0.3,0.7-0.6,1-0.9l0.8-0.7c0.3-0.3,0.7-0.6,1-0.8l0.3-0.2l0,0C167.2,345.5,168.2,344.8,169.2,344.2L169.2,344.2z M156.1,327.4c3.1,0.8,5.2,3.8,4.7,7c-0.2,3.5-2.7,6.2-5.5,5.8c-3.1-0.8-5.2-3.8-4.7-7C150.9,329.7,153.3,327.1,156.1,327.4z M163.6,313l1.6,7.8l-1.5,0.4c-0.2-1-0.5-2-0.8-3c-0.3-1.2-0.7-2.4-1.1-3.5c-0.1-0.2-0.2-0.5-0.3-0.7l-0.1-0.1 c-0.1-0.2-0.2-0.4-0.3-0.6c0-0.1-0.1-0.1-0.1-0.2c-0.1-0.2-0.2-0.3-0.3-0.4l-0.2-0.2c-0.1-0.1-0.2-0.3-0.3-0.4l-0.2-0.2 c-0.1-0.1-0.3-0.3-0.4-0.4l-0.1-0.1c-0.2-0.1-0.3-0.3-0.5-0.4l-0.2-0.1l-0.5-0.2l-0.2-0.1c-0.1,0-0.3-0.1-0.5-0.1h-0.1l-0.6-2.1 l-0.1-0.4c-0.2-0.7-0.4-1.4-0.6-2.1c-0.1-0.3-0.2-0.6-0.2-0.9l-0.5-1.8c-0.1-0.3-0.2-0.7-0.3-1c-0.2-0.6-0.3-1.3-0.5-1.9 c-0.1-0.4-0.2-0.7-0.3-1.1c-0.2-0.8-0.5-1.7-0.7-2.5l-0.2-0.9c-0.3-1-0.6-2.1-0.9-3.2c-0.1-0.4-0.2-0.8-0.4-1.2s-0.3-1.1-0.5-1.6 l0.1,0.1l3.3,1.6l5.2,2.4c0.3,0.1,0.5,0.2,0.8,0.3l3.2,15.8c-0.4,0.4-0.7,0.9-0.9,1.4C163.5,312,163.5,312.5,163.6,313L163.6,313z M41.9,322.9c1.8-6.6,8.2-10.5,17.3-13c4.3-0.8,8.8-1.1,13.2-0.8c0.6,0.2,1.1,0.4,1.6,0.6c-6.7,0-13.3,1.9-19.1,5.3 c-5.3,3-8.9,8.3-9.8,14.3v0.3h-5L41.9,322.9z M68.3,329.6h-4.5c0.2-1.2,0.6-2.3,1.2-3.4c2-3.6,5.3-6.2,9.2-7.4 c3.5-1.1,7.3-1.4,11-0.7c0.7,0.1,1.4,0.3,2.1,0.6c0.4,0.7,0.8,1.4,1.1,2.1l0,0c0.1,0.3,0.2,0.5,0.3,0.8s0.2,0.5,0.3,0.8 c0.1,0.3,0.2,0.8,0.4,1.1c0.1,0.4,0.2,0.5,0.3,0.8c0.1,0.5,0.2,0.9,0.3,1.4c0,0.2,0.1,0.5,0.2,0.7c0.2,0.8,0.3,1.5,0.4,2.4 c0,0.2,0,0.5,0,0.7L68.3,329.6z M83.9,314.8h-0.2c-0.7-0.1-1.4-0.1-2.1-0.1h-0.2c-0.8,0-1.6,0-2.3,0.1h-0.5 c-0.8,0.1-1.6,0.2-2.4,0.3l-0.4,0.1c-0.8,0.2-1.7,0.4-2.5,0.6c-2.2,0.7-4.3,1.8-6.2,3.2c-2,1.5-3.6,3.4-4.7,5.6l0,0 c-0.4,0.8-0.7,1.6-1,2.5c-0.1,0.3-0.2,0.6-0.3,0.9c-0.1,0.5-0.3,1-0.4,1.5H48.2c0.9-5,4-9.4,8.4-11.9c6.4-3.7,13.7-5.4,21-4.8 c1.3,0,2.7,0.1,4,0.3c0.6,0.4,1.2,0.8,1.7,1.2l0,0L83.9,314.8L83.9,314.8L83.9,314.8z M115.5,329.6H93.6c0-0.4,0-0.8-0.1-1.2 c-0.5-4.1-1.8-8.1-3.9-11.6l0.1-0.2c-0.1-0.1-0.2-0.1-0.3-0.2c-1.1-1.8-2.5-3.3-4.2-4.6c-0.5-0.4-1-0.7-1.5-1.1l-0.5-0.3 c-0.4-0.2-0.7-0.4-1-0.6l-0.2-0.1h0.1l2.4,0.2l0.5,0.1c0.8,0.1,1.5,0.1,2.2,0.2c3.5,0.4,8.5,0.5,8.5,0.5l1-3.6 c0.2-0.9,0.5-1.8,0.9-2.6l0.1-0.2l0,0c0.2-0.4,0.4-0.7,0.6-1l0.2-0.3c0.1-0.2,0.3-0.4,0.4-0.6l0.2-0.3c0.1-0.2,0.3-0.3,0.4-0.5 l0.2-0.2l0.1-0.1l0.2-0.2c0.2-0.1,0.3-0.3,0.5-0.4c0.1-0.1,0.2-0.1,0.4-0.2c0.2-0.1,0.3-0.2,0.5-0.3c0.1-0.1,0.2-0.1,0.4-0.2 c0.2-0.1,0.3-0.1,0.5-0.2l0.4-0.1c0.2,0,0.4,0,0.5-0.1c0.1,0,0.2,0,0.4,0c0.2,0,0.4,0,0.6,0.1l0.3,0.1c0.2,0,0.5,0.1,0.7,0.2 l0.3,0.1c0.3,0.1,0.6,0.3,0.9,0.4l0.2,0.1c0.2,0.1,0.5,0.3,0.7,0.5h0.1l0.2,0.2c0.3,0.2,0.5,0.4,0.7,0.6l0.3,0.3 c0.2,0.2,0.5,0.5,0.7,0.7c0.2,0.2,0.2,0.2,0.3,0.3c0.3,0.3,0.5,0.7,0.8,1l0.2,0.2c0.3,0.4,0.6,0.9,0.9,1.3l0.1,0.1 c0.2,0.3,0.4,0.7,0.6,1C115.4,313.9,116.6,321.8,115.5,329.6L115.5,329.6z M98.9,298.4c-0.4-1.3-0.8-2.8-1.3-4.4l-5.4-18.2l0,0 c0.9,0.1,1.8,0.2,2.7,0.2c2.1,0,4.1-0.3,6.1-1l5.4,22.3c-1.7-0.4-3.5-0.4-5.2,0.2c-0.2,0.1-0.5,0.2-0.7,0.3l-0.6,0.3 c-0.2,0.1-0.5,0.2-0.7,0.4L98.9,298.4L98.9,298.4L98.9,298.4z M94.9,273.1c-3.8,0.4-7.5-1.3-9.7-4.4c2.4,1.3,5,2.2,7.7,2.5 c0.8,0.1,1.7,0.2,2.5,0.2c2.9,0,5.7-0.6,8.3-1.9c0.2-0.1,0.4-0.2,0.6-0.3C102,271.9,98.5,273.4,94.9,273.1L94.9,273.1z M61,245.5 c-0.1,0-0.2,0-0.4,0c-0.2,0-0.5,0-0.7,0l-0.5-0.1l-0.7-0.2l-0.5-0.2l-0.4-0.1l-0.3-0.1l-0.2-0.1l-0.2-0.1l0,0l0.1-0.1 c0.3-0.1,0.7-0.3,1-0.5c0.3-0.2,0.6-0.4,0.9-0.7l0.2-0.2c0.2-0.2,0.4-0.4,0.6-0.7c0.1-0.1,0.1-0.1,0.2-0.2c0.2-0.3,0.4-0.7,0.5-1 c0-0.1,0.1-0.1,0.1-0.2c0.1-0.3,0.2-0.6,0.3-0.9c0-0.1,0-0.2,0.1-0.4c0.1-0.4,0.1-0.7,0.1-1.1v-0.2c0-0.4,0-0.8-0.1-1.2 c-0.1-0.3-0.1-0.7-0.2-1c-0.1-0.2-0.1-0.3-0.1-0.5c-0.2-0.5-0.4-1-0.6-1.5c-0.2-0.4-0.5-0.8-0.7-1.2l-0.2-0.3 c-0.2-0.3-0.5-0.6-0.7-0.8l-0.1-0.2c-0.3-0.3-0.6-0.5-1-0.8l-0.3-0.2c-0.3-0.2-0.6-0.3-0.9-0.5l-0.2-0.1c-0.3-0.1-0.7-0.3-1.1-0.3 h-0.2c-0.3,0-0.5-0.1-0.8-0.1c-0.3,0-0.5,0-0.8,0.1l-0.3,0.1l0,0l-0.1-0.1l-1.9-2.3l-0.2-0.2l-0.1-0.1l-1.3-1.6l-0.2-0.3l-1.3-2 l-0.1-0.2c-0.5-0.7-1-1.4-1.6-2.1l0,0c-0.5-0.7-1-1.4-1.6-2.2l-0.2-0.2v-0.1c-1-1.4-2-2.8-3-4.2v-0.1c-0.4-0.6-0.8-1.2-1.2-1.8 l-0.2-0.4l-1-1.5l-0.3-0.5c-0.4-0.6-0.8-1.2-1.2-1.9c0-0.1-0.1-0.1-0.1-0.1c-0.4-0.6-0.7-1.1-1-1.7l-0.3-0.5 c-0.3-0.5-0.6-1-0.9-1.5c-0.1-0.1-0.2-0.3-0.2-0.4c-0.3-0.6-0.7-1.2-1-1.8l-0.2-0.4c-0.3-0.5-0.5-1-0.7-1.4l-0.2-0.5 c-0.3-0.6-0.6-1.2-0.8-1.8c-0.4-1-0.8-1.9-1.2-2.7c-0.1-0.3-0.2-0.5-0.3-0.8c-0.2-0.6-0.4-1.1-0.6-1.6c-0.1-0.3-0.2-0.6-0.3-0.9 c-0.1-0.5-0.3-0.9-0.4-1.3c-0.1-0.4-0.1-0.6-0.2-0.8c-0.1-0.3-0.2-0.8-0.2-1.1c-0.1-0.4-0.1-0.5-0.1-0.8c0-0.3-0.1-0.7-0.1-1 c0-0.3,0-0.5,0-0.7c0-0.3,0-0.6,0.1-0.9c0.1-0.3,0.1-0.5,0.1-0.7c0-0.2,0.1-0.6,0.2-0.9c0.1-0.3,0.1-0.4,0.2-0.6 c0.1-0.2,0.2-0.6,0.4-0.9c0-0.1,0.1-0.3,0.2-0.4l0,0c2.6-4.4,5.6-8.5,9-12.3c9-11.6,30.4-29.6,45.4-33.5c0.1,0.4,0.1,0.7,0.2,1 c1.9,4.6,5.8,8.2,10.5,9.7c4.7,1.8,9.7,2.7,14.8,2.8l-0.4,0.2c-0.9,0.5-1.6,1.4-1.8,2.4c-2.1,8-3.7,16.1-4.6,24.3l-20.1-1.8 l-11.6,12.5c-4.2-0.4-8.3-1.5-12.1-3.2c1.8-17.1,10.2-32.9,23.4-44c-4.4,1.5-8.3,4-11.5,7.4c-1,1.3-2,2.7-2.9,4.1 c-0.3,0.5-0.6,0.9-0.9,1.4c-0.6,1-1.2,2-1.8,3c-0.3,0.5-0.6,1.1-0.9,1.6c-0.5,1-1,2-1.5,3c-0.2,0.5-0.5,1-0.7,1.6 c-0.5,1.2-1,2.4-1.5,3.7c-0.1,0.4-0.3,0.7-0.4,1c-0.6,1.6-1.1,3.2-1.6,4.8c-0.1,0.4-0.2,0.9-0.3,1.3c-0.3,1.2-0.7,2.5-0.9,3.7 c-0.1,0.6-0.2,1.2-0.4,1.7c-0.2,1.1-0.4,2.2-0.6,3.3c-0.1,0.6-0.2,1.2-0.3,1.8c0,0.4-0.1,0.8-0.1,1.2c-0.3-0.2-0.6-0.5-0.9-0.7 c-0.3-0.2-0.4-0.3-0.6-0.4c-0.6-0.4-1.3-0.8-2-1.2c-0.4-0.2-0.8-0.5-1.3-0.6l-0.5-0.2c-0.3-0.1-0.6-0.3-0.9-0.4l-0.6-0.2l-0.9-0.3 c-0.2-0.1-0.4-0.1-0.6-0.2l-0.9-0.3l-0.6-0.2l-0.9-0.2l-0.6-0.1c-0.3-0.1-0.6-0.1-0.9-0.1l-0.6-0.1h-1.5c-0.5,0-1,0-1.4,0.1l-4,1.1 c3.9,0.1,7.8,0.9,11.4,2.3c3.2,1.3,6,3.6,8,6.5c0.1,0.4,0.3,0.7,0.6,1c0.9,1.6,1.6,3.3,2.1,5c0,1.5,0,3.1,0.1,4.6 c0.2,3.3,0.6,6.6,1.1,9.9c-1.5,0.2-2.9,1.1-3.7,2.4c-0.7,1-1.1,2.2-1.1,3.5c0.2,1,0.6,1.9,1.1,2.7l0.4,0.7l0,0 c0.5,0.9,0.9,1.8,1.4,2.8l0.6,1.2l0,0c0.2,0.4,0.4,0.8,0.6,1.3c0.4,0.7,0.7,1.5,1.1,2.2c0.2,0.4,0.4,0.8,0.6,1.3 c0.6,1.4,1.3,2.7,2,4l0.2,0.4c0.8,1.4,1.6,2.7,2.4,4l0.6,0.9c0.8,1.1,1.5,2.3,2.4,3.4l0.3,0.4l0,0l-0.3,0.2l-0.3,0.2 c-0.1,0.1-0.3,0.2-0.4,0.3l-0.5,0.3l-0.4,0.3l-0.5,0.3l-0.5,0.3l-0.4,0.3l-0.5,0.3c-0.2,0.1-0.3,0.2-0.4,0.3l-0.4,0.3l-0.4,0.2 l-0.4,0.2l-0.3,0.2l-0.4,0.2l-0.2,0.1c-0.2,0.1-0.4,0.2-0.5,0.3C61.6,245.4,61.3,245.5,61,245.5L61,245.5z M33,222 c5.3,0.7,10.4,2.9,14.4,6.4l1.5,1.1c0.5,0.6,1,1.3,1.5,1.9c-1.8,1.9-2.4,4.7-1.6,7.2c-0.1,0.1-0.2,0.3-0.3,0.4 C39.7,232.4,26.4,222,33,222L33,222z M38.5,217c0.4,0,0.8,0.1,1.2,0.2c1.2,1.7,2.4,3.4,3.6,5.1c-2-1.1-4-2-6.2-2.6 C36.2,217.9,36.4,216.8,38.5,217L38.5,217z M59.1,235c1.5,2.5,0.9,5.8-1.5,7.5c-2.6,1.1-5.6-0.1-6.7-2.7c0,0,0-0.1-0.1-0.1 c-1.5-2.5-0.9-5.8,1.5-7.5c2.6-1.1,5.6,0,6.7,2.6C59.1,234.9,59.1,235,59.1,235L59.1,235z M74.4,63c6.1-4.4,11.4-9.7,15.8-15.8 c0.7-1.5,1.6-3,2.6-4.3v-0.1c0.3-0.7,0.8-1.2,1.4-1.6c1.7-2.1,4.7-2.6,7-1.2c7.9,5.3,8.5,12.2,21.4,11.3c-0.8,1.3-1.3,2.9-1.3,4.4 c0,0.9,0.2,1.8,0.5,2.6c-0.8,0.6-1.4,1.1-1.8,1.4c-5.5,4.8-34.5,18.6-50.8,19.7C50.9,80.8,63.9,71.7,74.4,63L74.4,63z M101.8,16.3 c0.2-0.2,0.4-0.4,0.6-0.6c0.8-0.6,1.6-1.2,2.4-1.8c0.2-0.2,0.5-0.3,0.7-0.4c0.6-0.4,1.2-0.8,1.9-1.1c0.3-0.2,0.7-0.3,1-0.5 c0.6-0.3,1.1-0.6,1.7-0.8c0.4-0.2,0.8-0.3,1.1-0.5c0.6-0.2,1.1-0.5,1.7-0.6l1.2-0.4c0.6-0.2,1.2-0.3,1.9-0.5l1.2-0.3 c0.7-0.1,1.4-0.2,2.1-0.3c0.3,0,0.7-0.1,1-0.1c1.1-0.1,2.1-0.2,3.2-0.2c1.1,0,2.2,0.1,3.2,0.2c0.4,0,0.7,0.1,1.1,0.2 c0.7,0.1,1.4,0.2,2.1,0.3c0.4,0.1,0.8,0.2,1.2,0.3c0.6,0.1,1.2,0.3,1.8,0.5c0.4,0.1,0.8,0.3,1.2,0.4c0.6,0.2,1.1,0.4,1.7,0.6 c0.6,0.2,0.8,0.4,1.2,0.5c0.4,0.2,1.1,0.5,1.6,0.8c0.5,0.3,0.8,0.4,1.2,0.7c0.4,0.2,1,0.6,1.5,0.9c0.5,0.3,0.8,0.5,1.1,0.7 c0.4,0.2,0.9,0.7,1.4,1l1,0.8c0.5,0.4,0.9,0.8,1.3,1.2s0.6,0.6,0.9,0.9c0.5,0.5,0.9,0.9,1.3,1.4c0.3,0.3,0.5,0.6,0.8,0.9 c0.5,0.7,1,1.3,1.5,2l0.3,0.5c0.6,0.8,1.1,1.7,1.6,2.6c0.2,0.3,0.3,0.7,0.5,1c0.3,0.6,0.6,1.2,0.9,1.8c0.2,0.4,0.3,0.8,0.5,1.2 c0.2,0.6,0.4,1.1,0.6,1.7c0.2,0.6,0.3,0.9,0.4,1.3c0.1,0.5,0.3,1.1,0.4,1.7c0.1,0.6,0.2,0.9,0.3,1.4c0.1,0.5,0.1,0.7,0.2,1v0.1 c0.2,1.6,0.4,3.2,0.4,4.8c0.1,18.3-14.7,33.2-32.9,33.3c-2.7,0-5.3-0.3-7.9-0.9c3.5-1.3,7-2.6,10.3-4.2c2.9-1.4,7.9-3.9,9.2-7v-0.1 c3.7-3,4.1-8.5,1.1-12.1c-2.5-3-6.6-3.9-10.1-2.3l0,0c6.2-4.5,10.4-12.9,5.8-18.1c-5.4-6-20.3-11-31.5-10.7 c-0.7,0.1-1.5,0.2-2.2,0.3c0.3-0.3,0.6-0.7,0.9-1c0.3-0.3,0.5-0.6,0.8-0.9C100.8,17.2,101.3,16.8,101.8,16.3z M101.8,113.5l0.3-0.7 c0.2-0.4,0.3-0.7,0.5-1.1c1.8,0.5,4.4,1.1,7.3,1.6c5.6,1,12.3,2,16.2,2.4c-0.2,0.6-0.3,1.3-0.4,1.9c-4-0.4-10.6-1.3-16.1-2.4 C106.9,114.9,104.3,114.3,101.8,113.5z M108,101.5l1.1-1.9c3.5,0.1,6.9,0.6,10.3,1.3c3.5,0.8,6.8,1.9,10.1,3.4 c-0.2,0.6-0.4,1.2-0.6,1.9c-3.2-1.5-6.5-2.6-9.9-3.4C115.4,102.1,111.7,101.6,108,101.5L108,101.5z M115.2,89.5 c0.4-0.7,0.9-1.4,1.3-2c2.5-0.1,4.9,0.2,7.3,0.8c3.5,0.9,6.9,2.4,10,4.3c-0.3,0.6-0.5,1.2-0.7,1.8c-3-1.9-6.3-3.4-9.8-4.3 C120.7,89.5,117.9,89.2,115.2,89.5L115.2,89.5z M121.8,79.7l1.4-1.9c2.6,0.1,5.3,0.5,7.9,1.1c2.6,0.6,5.1,1.5,7.5,2.8 c-0.3,0.6-0.5,1.2-0.8,1.8c-2.2-1.2-4.6-2.2-7.1-2.7C127.7,80.1,124.8,79.7,121.8,79.7L121.8,79.7z M109.2,126.6 c5,0.7,10.1,0.6,15.1-0.3c-0.1,0.7-0.2,1.4-0.2,2c-5,0.8-10.1,0.9-15.1,0.2c-4.1-0.4-8.1-1.5-11.9-3.3c0.2-0.6,0.4-1.2,0.6-1.8 C101.3,125.1,105.2,126.2,109.2,126.6L109.2,126.6z M123.4,55.9c0-3.6,2.9-6.6,6.6-6.6s6.6,2.9,6.6,6.6s-2.9,6.6-6.6,6.6l0,0l0,0 C126.3,62.4,123.4,59.5,123.4,55.9z M92.9,33.5c0.7-2.2,2.2-3.7,3.4-3.4c1.2,0.4,1.5,2.5,0.8,4.7s-2.2,3.7-3.4,3.4 C92.5,37.8,92.2,35.7,92.9,33.5L92.9,33.5z M118.1,38.8c1.2-1.7,3.6-2.2,5.4-0.9s2.2,3.6,0.9,5.4c-1.2,1.7-3.6,2.2-5.4,0.9 C117.3,43,116.8,40.6,118.1,38.8L118.1,38.8L118.1,38.8z M93.2,76.4c7.1-2.6,14.1-5.8,20.8-9.3c2.3-1.2,4.5-2.5,6.6-4 c0.9-0.6,1.6-1.3,2.3-2.1c1.5,2.1,3.9,3.4,6.6,3.6c-9.4,4.9-19.4,8.7-29.6,11.4c-4.8,1.5-9.8,2.7-14.8,3.3 C87.9,78.3,90.7,77.3,93.2,76.4L93.2,76.4z M93.4,127.3c-0.1,1.4,0.4,2.9,1.4,3.9c4.7,3.2,10.3,5,16,5c5.7,0.2,13.4-0.9,15.3-5 c0.4-1.4,0.6-2.8,0.7-4.3c7.1-0.5,10.2,9.1,3,14.6c-13.3,10.1-44.1,5.1-43-7.8c0.4-5.2,1.4-8.8,7.1-9.7c-0.4,0.7-0.6,1.5-0.6,2.2 C93.4,126.6,93.5,127,93.4,127.3L93.4,127.3z M109.9,235.8c-6.4-27.1-6-55.4,1.2-82.4c18.5,5.4,38.5-0.4,51.2-14.9 c12.7,14.5,32.7,20.3,51.2,14.9c7.4,27.6,7.6,56.6,0.7,84.3c-8.2,32-21.8,38.8-51.9,52.7C131.1,276,118,269.1,109.9,235.8z M118.4,265.9l-0.6-0.1c-0.7-0.1-1.4-0.1-2-0.2c-0.6-0.1-1.4-0.2-2.1-0.3c-0.7-0.1-1.4-0.3-2.1-0.4c-0.5-0.1-1-0.2-1.5-0.3 c-0.3-0.1-0.5-0.1-0.7-0.2l-1.1-0.3c-0.4-0.1-0.8-0.2-1.2-0.3l-0.2-0.1c-0.5-0.1-1-0.3-1.5-0.5l-1-0.3c-1.2-0.4-2.4-0.8-3.6-1.3 l-0.2-0.1l-0.7-0.3c-0.8-0.4-1.6-0.7-2.5-1.1c-0.2-0.1-0.4-0.2-0.6-0.3c-0.7-0.3-1.3-0.7-2-1c-0.7-0.3-1-0.5-1.5-0.8l-1.1-0.6l0,0 c-1.2-0.7-2.5-1.5-3.7-2.2l-1.1-0.8c-0.6-0.4-1.1-0.8-1.7-1.2c-0.2-0.2-0.5-0.4-0.7-0.5c-0.6-0.4-1.1-0.9-1.7-1.3 c-0.4-0.3-0.8-0.6-1.2-0.9l-1.1-1l-0.7-0.6c-1.1-0.9-2.1-1.9-3.1-2.9l-0.5-0.5c-0.9-0.9-1.8-1.8-2.6-2.8l-0.6-0.7l-0.4-0.4 c-0.6-0.7-1.2-1.4-1.8-2.2l-0.1-0.1l-0.3-0.5c-0.5-0.6-0.9-1.2-1.4-1.9c-0.5-0.6-0.8-1-1.2-1.6c-0.2-0.3-0.4-0.6-0.6-0.9l-0.1-0.1 c0-0.1-0.1-0.1-0.1-0.2c-0.4-0.6-0.8-1.2-1.1-1.8c-0.3-0.6-0.8-1.3-1.1-2l-0.3-0.6c0-0.1-0.1-0.2-0.1-0.3l0,0 c-0.7-1.4-1.4-2.7-2-4.1c-0.2-0.5-0.7-1.4-1.3-2.6c-1.8-3.6-1.8-2.9,0.9-0.9c10.9,8.2,26.8,11.1,42.9,11.1c0.3,1.1,0.5,2.3,0.8,3.4 c1.1,4.7,2.5,9.3,4.2,13.9c0.5,1.4,1,2.7,1.6,3.9l0.2,0.5c0.6,1.3,1.2,2.5,1.8,3.7l0.1,0.2c0.6,1.2,1.3,2.3,2,3.4l0.1,0.2 c0.7,1.1,1.4,2.1,2.1,3.1L118.4,265.9L118.4,265.9L118.4,265.9z M58.6,187.2c0-0.4,0.1-0.7,0.1-1.1l0,0l0.5,0.2 c0.8,0.3,1.6,0.6,2.4,0.8l0.3,0.1c0.8,0.2,1.5,0.4,2.1,0.6l0.3,0.1c0.7,0.1,1.3,0.3,1.9,0.4h0.3c0.6,0.1,1.1,0.2,1.6,0.2h0.2 c0.5,0,0.9,0.1,1.3,0.1h2.5l6.1-6.8l4.9-5.4l0,0l15,1.2l4.7,0.4c0,0,0,0.1,0,0.2v0.5c-0.1,0.9-0.2,1.7-0.3,2.6l0,0l-19.2-1.7 l-11,12.4h-2.4l-0.4-0.1H69l-0.5-0.1l-0.4-0.1l-0.5-0.1l-0.5-0.1l-0.6-0.1l-0.5-0.1l-0.6-0.1l-0.5-0.1l-0.7-0.2l-0.5-0.1l-0.7-0.2 l-0.5-0.2l-0.8-0.3l-0.5-0.2c-0.5-0.2-0.9-0.3-1.4-0.5l0,0l-1.1-0.5l-0.3-0.1C58.5,188.2,58.6,187.7,58.6,187.2z M95.6,214.6 c-1,0.4-2.1,0.8-3.2,1.2c-1-0.5-2.2-1.1-3.2-1.8c-1.1-0.6-2.1-1.4-2.9-2.3c-0.6-0.7-1.1-1.6-1.4-2.4c-0.4-1-0.7-1.9-0.9-2.9 c-0.5-2.2-0.7-4.4-0.7-6.6c0-1.9,0.2-3.8,0.5-5.6c1.1,0.1,2.3,0.1,3.4-0.1c1.5-0.2,3-0.6,4.3-1.1c0.3-0.1,0.7-0.3,1-0.5l0.3-0.2 l0.3,0.2c0.3,0.2,0.7,0.5,1,0.6c1.3,0.8,2.8,1.4,4.3,1.9c1,0.3,2,0.5,3.1,0.6c0,3.3,0,6.7,0.2,10c-0.2,1-0.5,2-0.8,3 c-0.3,0.8-0.6,1.7-1,2.5c-0.4,0.7-0.9,1.4-1.5,1.9C97.6,213.7,96.6,214.2,95.6,214.6L95.6,214.6z M101.6,193.1 c-0.8-0.1-1.6-0.2-2.4-0.5c-1.3-0.4-2.6-0.9-3.7-1.6c-0.3-0.2-0.6-0.4-0.9-0.6c-0.3-0.2-0.6-0.4-0.9-0.6l-0.6-0.5l-0.7,0.4 c-0.3,0.2-0.6,0.3-0.9,0.5l-0.9,0.4c-1.2,0.5-2.4,0.8-3.7,1c-1.3,0.2-2.6,0.2-3.9,0l-1.1-0.2l-0.3,1.1c-0.5,2.4-0.8,4.8-0.8,7.2 c0,2.4,0.2,4.8,0.8,7.1c0.2,1.1,0.6,2.2,1,3.3c0.4,1.1,1.1,2.2,1.9,3.1c1,1.1,2.2,2,3.5,2.8c1.3,0.8,2.6,1.5,3.9,2.1l0.5,0.2 l0.5-0.2c1.2-0.4,2.6-0.9,3.8-1.4c1.3-0.5,2.5-1.2,3.5-2.1c0.8-0.7,1.5-1.6,2-2.6l0.1-0.1c0.1,1.1,0.2,2.3,0.3,3.4 c-2.9,2.7-6.5,4.5-10.4,5.3c-7.7-3.9-10.8-5.8-12.6-13.5c-1.4-6.2-1-12.6,1-18.6c4.4,1.7,9.3,0.8,12.8-2.3c2.2,2.5,5.1,4.1,8.4,4.6 C101.6,191.7,101.6,192.4,101.6,193.1L101.6,193.1z M60.5,213c0.5,0.3,1,2.3,1.4,2.6c10.4,8.9,26.2,12.3,42.4,12.4 c0.2,0.9,0.3,1.7,0.5,2.6c-9.8,0.2-19.6-1.3-29-4.3c-3.4-1.3-6.8-2.9-10-4.6c-3.1-1.6-5.8-3.9-7.9-6.8 C58.4,213.9,59.7,212.5,60.5,213z M146.8,146c-10.4,5.8-22.7,7.1-34.2,3.7c6.8-0.1,13.3-2.1,18.9-5.9c2.3-1.7,4-4,4.8-6.7 c1.5,0.9,2.9,1.8,4.4,2.7c-1.1,0.4-1.7,0.9-1.6,1.5c0.4-0.2,0.8-0.3,1.2-0.4c4-0.7,8.2-0.1,11.8,1.7 C150.4,143.9,148.7,145,146.8,146L146.8,146z M72,245.1l0.2,0.3l1.2,1.2c0.4,0.4,0.7,0.7,1.1,1.1s0.8,0.8,1.2,1.2 c0.4,0.4,0.7,0.7,1.1,1s0.9,0.8,1.3,1.2c0.5,0.4,0.7,0.7,1.1,1s0.9,0.8,1.4,1.1c3.1,2.5,6.3,4.7,9.8,6.6l0.6,0.3 c0.7,0.4,1.5,0.8,2.2,1.2c3.5,1.8,7.1,3.3,10.8,4.6c-2.5,1.6-5.5,2.4-8.5,2.4h-0.1c-0.7,0-1.3,0-2-0.1l-0.5-0.1 c-0.6-0.1-1.3-0.2-1.9-0.4H91c-0.4-0.1-0.8-0.2-1.2-0.4c-0.1,0-0.3-0.1-0.4-0.2l-0.8-0.3c-0.4-0.2-0.8-0.3-1.2-0.5 c-0.2-0.1-0.5-0.2-0.7-0.4l-0.4-0.2c-0.3-0.2-0.7-0.4-1-0.6l-0.1-0.1c-0.7-0.5-1.5-1-2.2-1.5l-0.1-0.1c-0.2-0.2-0.4-0.4-0.6-0.6 c-0.4-0.3-0.8-0.7-1.1-1s-0.5-0.5-0.7-0.8s-0.7-0.7-1-1.1s-0.5-0.6-0.7-0.9s-0.6-0.8-0.9-1.1c-0.3-0.4-0.5-0.6-0.7-1 c-0.2-0.4-0.5-0.8-0.8-1.2c-0.3-0.4-0.4-0.7-0.6-1c-0.2-0.3-0.5-0.9-0.7-1.3c-0.2-0.4-0.4-0.7-0.5-1.1c-0.2-0.4-0.4-0.9-0.6-1.4 c-0.2-0.5-0.3-0.8-0.5-1.2c-0.1-0.4-0.3-1-0.5-1.4s-0.3-0.8-0.4-1.2s-0.3-1-0.4-1.5C72.1,245.7,72.1,245.4,72,245.1L72,245.1 L72,245.1z"></path> <path id="Path_186" class="st0" d="M133.6,59.5c2-2,2-5.3,0-7.3s-5.3-2-7.3,0c-2,2-2,5.3,0,7.3C128.3,61.6,131.6,61.6,133.6,59.5 C133.6,59.5,133.6,59.5,133.6,59.5z M127,52.9c1.4-1.4,3.6-1.6,5.2-0.5l-5.7,5.8C125.4,56.5,125.6,54.3,127,52.9z M127.7,59.3 l5.7-5.7c1.3,1.9,0.8,4.5-1.1,5.7C130.9,60.3,129.1,60.3,127.7,59.3z"></path> <path id="Path_187" class="st0" d="M127.9,37.6c0-1.3-1-2.3-2.3-2.3c-1.3,0-2.3,1-2.3,2.3c0,1.3,1,2.3,2.3,2.3l0,0 C126.9,39.9,127.9,38.9,127.9,37.6C127.9,37.6,127.9,37.6,127.9,37.6z"></path> <path id="Path_188" class="st0" d="M95.6,35.3c0.5,0.2,1.2-0.5,1.5-1.5c0.3-1,0.1-1.9-0.4-2c-0.5-0.1-1.2,0.5-1.5,1.4 S95.1,35.1,95.6,35.3z"></path> <path id="Path_189" class="st0" d="M89.2,134.9c0,1,0.8,1.9,1.8,2c1,0,1.9-0.8,2-1.8c0-1-0.8-1.9-1.8-2c0,0,0,0,0,0l0,0 C90.1,133,89.2,133.8,89.2,134.9z"></path> <path id="Path_190" class="st0" d="M129,134.6c-1,0-1.9,0.8-2,1.8c0,1,0.8,1.9,1.8,2c1,0,1.9-0.8,2-1.8c0,0,0,0,0,0l0,0 C130.8,135.5,130,134.6,129,134.6z"></path> <path id="Path_191" class="st0" d="M97.4,137c-1,0-1.9,0.8-2,1.8c0,1,0.8,1.9,1.8,2c1,0,1.9-0.8,2-1.8c0,0,0,0,0,0l0,0 C99.3,137.9,98.4,137,97.4,137z"></path> <path id="Path_192" class="st0" d="M122.2,142.2c1,0,1.9-0.8,2-1.8c0-1-0.8-1.9-1.8-2c-1,0-1.9,0.8-2,1.8c0,0,0,0,0,0l0,0 C120.3,141.3,121.2,142.2,122.2,142.2z"></path> <path id="Path_193" class="st0" d="M105.2,143.3c1,0,1.9-0.8,2-1.8c0-1-0.8-1.9-1.8-2c-1,0-1.9,0.8-2,1.8c0,0,0,0,0,0l0,0 C103.3,142.4,104.2,143.2,105.2,143.3z"></path> <path id="Path_194" class="st0" d="M114,143.9c1,0,1.9-0.8,2-1.8c0-1-0.8-1.9-1.8-2c-1,0-1.9,0.8-2,1.8c0,0,0,0,0,0l0,0 C112.2,143,113,143.9,114,143.9z"></path> <path id="Path_195" class="st0" d="M51.2,235.8c-0.4,2.4,0.8,4.7,3,5.8c1.7,0.7,3.6,0,4.3-1.7c0.1-0.3,0.2-0.6,0.3-1 c0.4-2.4-0.8-4.7-2.9-5.8c-1.6-0.8-3.6,0-4.4,1.6C51.4,235.1,51.3,235.5,51.2,235.8z M54.3,240.7c-1.5-0.7-2.4-2.3-2.4-3.9l5.9,2.5 c-0.5,1.3-1.9,2-3.3,1.6C54.5,240.8,54.4,240.8,54.3,240.7L54.3,240.7z M58.1,238l-5.9-2.5c0.5-1.3,1.9-2,3.3-1.6c0,0,0,0,0,0 l0.2,0.1C57.2,234.8,58.1,236.3,58.1,238L58.1,238z"></path> <path id="Path_196" class="st0" d="M103.5,309.3c-4.5,0.5-7.7,4.5-7.2,9s4.5,7.7,9,7.2c4.5-0.5,7.7-4.5,7.2-9v0 C112,312,108,308.8,103.5,309.3z M105.1,323.6c-3.4,0.4-6.5-2.1-6.9-5.5c-0.4-3.4,2.1-6.5,5.5-6.9c3.4-0.4,6.5,2.1,6.9,5.5 c0,0,0,0,0,0l0,0C111,320.1,108.5,323.2,105.1,323.6C105.1,323.6,105.1,323.6,105.1,323.6L105.1,323.6z"></path> <path id="Path_197" class="st0" d="M107.5,313.6c-2.1-1.7-5.2-1.3-6.9,0.8c-1.7,2.1-1.3,5.2,0.8,6.9c2.1,1.7,5.2,1.3,6.9-0.8l0,0 C109.9,318.4,109.6,315.3,107.5,313.6L107.5,313.6z M102,320.5c-1.4-1.2-1.9-3.2-1-4.8l6,4.8C105.6,321.6,103.5,321.6,102,320.5 L102,320.5z M107.9,319.2l-6-4.8c1.7-1.4,4.1-1.2,5.5,0.5C108.4,316.1,108.6,317.8,107.9,319.2z"></path> <path id="Path_198" class="st0" d="M151.7,337.1c0.9,1.7,3.1,2.3,4.8,1.4c0.3-0.2,0.7-0.4,0.9-0.7c1.7-2,1.9-4.9,0.4-7.1 c-0.9-1.7-3.1-2.3-4.8-1.4c-0.3,0.2-0.7,0.4-0.9,0.7C150.4,332,150.2,334.9,151.7,337.1z M152.3,336.4c-1-1.6-1-3.5-0.1-5.1 l4.1,6.1c-1.3,0.9-3.1,0.5-3.9-0.8C152.4,336.6,152.3,336.5,152.3,336.4L152.3,336.4z M157.2,331.2c1,1.6,1,3.6,0.1,5.1l-4.1-6.1 c1.3-0.9,3-0.5,3.9,0.8C157.1,331.1,157.1,331.2,157.2,331.2z"></path> <path id="Path_199" class="st0" d="M163.2,284c18.4-8.9,34.6-15.4,42.2-36c2.8-7.8,4.9-15.9,6.2-24.1c3.4-20.6,2.8-41.7-1.7-62.1 c-0.2-1-1.2-1.7-2.2-1.5c-11.8,1.9-24-0.2-34.5-6c-3.4-1.9-6.7-4.2-9.7-6.7c-0.7-0.6-1.8-0.6-2.5,0c-3,2.6-6.2,4.8-9.7,6.7 c-10.5,5.8-22.6,7.9-34.5,6c-1-0.1-2,0.5-2.2,1.5c-4.5,20.4-5.1,41.5-1.7,62.2c1.3,8.2,3.4,16.3,6.2,24.1 c7.6,20.6,23.8,27.1,42.2,36C162,284.3,162.6,284.3,163.2,284z M159.1,280.7l-0.4-0.2l-1.2-0.6l-0.4-0.2l-2.5-1.2l-1-0.5l-0.3-0.1 c-1.7-0.8-3.4-1.7-5-2.5l-0.5-0.2l-1-0.5l-1.2-0.6c-0.2-0.1-0.3-0.2-0.5-0.3l-1-0.6l-0.8-0.5l-0.4-0.2l-0.4-0.2l-0.6-0.4 c-0.8-0.5-1.6-1-2.4-1.5l-1.1-0.7c-0.7-0.5-1.4-1-2.1-1.6c-0.2-0.2-0.5-0.3-0.7-0.5l-0.2-0.1l-0.3-0.2c-0.5-0.4-1-0.9-1.5-1.3 c-0.3-0.3-0.6-0.5-0.9-0.7l-0.1-0.1l-0.1-0.1l-0.1-0.1c-0.2-0.2-0.4-0.4-0.7-0.6c-0.5-0.5-1.1-1-1.6-1.6l-0.8-0.9 c-0.4-0.4-0.7-0.8-1.1-1.2l-0.3-0.4l-0.5-0.6c-0.5-0.6-1-1.3-1.4-2l-0.4-0.6c-0.6-0.9-1.1-1.7-1.6-2.6c-0.1-0.2-0.2-0.4-0.3-0.6 c-0.2-0.5-0.5-0.9-0.7-1.4c-0.2-0.3-0.3-0.7-0.5-1l-0.4-0.8c-0.5-1-0.9-2.1-1.3-3.2c-0.6-1.7-1.2-3.5-1.8-5.2L119,241 c-0.5-1.7-1-3.4-1.4-5.2l-0.2-0.9c-0.2-0.7-0.4-1.4-0.5-2.1c-0.2-0.7-0.4-1.7-0.6-2.6c0-0.2-0.1-0.3-0.1-0.5c0-0.2-0.1-0.3-0.1-0.4 c-0.1-0.5-0.2-1-0.3-1.5c-0.2-1-0.4-1.9-0.5-2.9c-0.1-0.5-0.2-0.9-0.2-1.4c-0.4-2.3-0.7-4.6-1-6.9c-0.1-0.5-0.1-0.9-0.2-1.3 c-0.3-2.2-0.5-4.4-0.6-6.7c0-0.4-0.1-0.8-0.1-1.3c0-0.8-0.1-1.7-0.2-2.5c0,0.1,0,0.3,0.1,0.4c-0.1-1.1-0.1-2.2-0.2-3.3l0,0v-9.6 c0.1-2.2,0.2-4.5,0.3-6.7c0-0.5,0.1-1.1,0.1-1.6c0.2-2.1,0.4-4.1,0.6-6.2c0-0.2,0-0.5,0.1-0.7c0.3-2.2,0.6-4.5,1-6.7l0.3-1.6 c0.4-2.2,0.8-4.5,1.3-6.7c12.3,2,24.8-0.2,35.7-6.2c3.5-2,6.9-4.3,10-6.9c3.1,2.6,6.4,5,10,6.9c10.9,6,23.5,8.2,35.7,6.2 c4.5,20.2,5,41,1.6,61.4c0,0.3-0.1,0.5-0.1,0.8l0,0c-1.3,7.8-3.3,15.5-6,23c-0.4,1-0.8,1.9-1.2,2.8l0,0c-0.1,0.1-0.1,0.3-0.2,0.4 c-0.2,0.5-0.4,0.9-0.6,1.3c-0.3,0.6-0.6,1.3-0.9,1.9c-0.2,0.4-0.5,0.8-0.7,1.2c-0.3,0.6-0.7,1.1-1,1.7c-0.3,0.5-0.5,0.8-0.8,1.2 c-0.3,0.4-0.7,1-1.1,1.5c-0.4,0.5-0.5,0.7-0.8,1.1s-0.8,1-1.2,1.4c-0.3,0.3-0.6,0.6-0.9,0.9c-0.5,0.5-0.9,0.9-1.4,1.4 c-0.3,0.3-0.6,0.6-0.8,0.8c-0.5,0.5-1.1,1-1.7,1.5l-0.7,0.6c-0.8,0.7-1.6,1.3-2.5,1.9l-0.5,0.4c-0.7,0.5-1.4,1-2.1,1.4l-1,0.6 c-0.6,0.4-1.1,0.7-1.7,1.1l-1.1,0.7l-1.7,1l-1.2,0.6l-1.7,0.9l-1.3,0.7l-1.8,0.9l-1.3,0.7l-1.9,0.9l-1.3,0.6l-2.3,1.1l-3.9,1.9 L159.1,280.7z"></path> <path id="Path_200" class="st0" d="M219.9,330h-23.5c-1,0-1.9,0.8-1.9,1.9c0,1,0.8,1.9,1.9,1.9h23.5c1,0,1.9-0.8,1.9-1.9 C221.7,330.9,220.9,330,219.9,330L219.9,330z"></path> <path id="Path_201" class="st0" d="M78.4,159.3c-0.4-0.2-0.9-0.4-1.3-0.5c0.4-0.8,0.8-1.6,1.2-2.4c-0.8-0.4-1.7-0.7-2.5-1.1 c-0.4,0.8-0.8,1.6-1.2,2.3l-1.2-0.6c1-1.8,2.1-3.7,3-5.6l1.1,0.6c-0.4,0.8-0.8,1.6-1.2,2.4c0.8,0.4,1.6,0.8,2.5,1.1 c0.4-0.8,0.8-1.6,1.1-2.5l1.2,0.5C80.2,155.5,79.4,157.4,78.4,159.3z"></path> <path id="Path_202" class="st0" d="M85.9,159.2c-0.3,0.7-0.8,1.3-1.5,1.6c-0.7,0.3-1.6,0.3-2.3,0c-0.7-0.2-1.3-0.7-1.7-1.4 c-0.3-0.7-0.3-1.4,0.1-2.1l0.5-1c0.6-1.4,2.2-2.1,3.6-1.5c0.7,0.2,1.3,0.7,1.6,1.4c0.3,0.6,0.4,1.4,0.1,2.1 C86.2,158.5,86,158.9,85.9,159.2z M85,157.7c0.2-0.4,0.2-0.9,0.1-1.3c-0.1-0.4-0.5-0.7-0.9-0.8c-0.4-0.2-0.8-0.1-1.2,0.1 c-0.4,0.2-0.7,0.6-0.8,1l-0.5,1.1c-0.2,0.4-0.2,0.8-0.1,1.3c0.1,0.4,0.5,0.7,0.9,0.8c0.4,0.2,0.9,0.1,1.2-0.1 c0.4-0.2,0.7-0.6,0.8-1L85,157.7z"></path> <path id="Path_203" class="st0" d="M91.7,163.5l-1.4-0.3c-0.5-1.6-0.9-3.2-1.4-4.9l0,0c-0.5,1.4-0.9,2.7-1.4,4.1l-1.4-0.4 c0.8-2,1.5-4,2.1-6c0.4,0.1,0.9,0.2,1.3,0.4c0.5,1.6,0.9,3.2,1.4,4.8l0,0c0.5-1.4,0.9-2.8,1.2-4.2l1.3,0.3 C92.9,159.4,92.3,161.4,91.7,163.5z"></path> <path id="Path_204" class="st0" d="M95.9,161.6l-0.8-0.1c-0.2,0.9-0.5,1.7-0.7,2.6l-1.4-0.3c0.6-2,1.2-4.1,1.7-6.2l1.4,0.3 c-0.2,0.8-0.4,1.7-0.6,2.5l0.6,0.1c0.8-0.7,1.6-1.5,2.4-2.3l1.7,0.2c-1,0.9-1.9,1.7-3,2.6c0.6,1.2,1.2,2.5,1.8,3.7l-1.8-0.2 C96.8,163.5,96.3,162.5,95.9,161.6z"></path> </g> </svg> 