<?xml version="1.0" encoding="utf-8"?>
<!-- Generator: Adobe Illustrator 28.0.0, SVG Export Plug-In . SVG Version: 6.00 Build 0)  -->
<svg version="1.1" id="Layer_1" xmlns="http://www.w3.org/2000/svg" xmlns:xlink="http://www.w3.org/1999/xlink" x="0px" y="0px"
	 viewBox="0 0 1000 1000" style="enable-background:new 0 0 1000 1000;" xml:space="preserve">
<style type="text/css">
	.st0{fill:#E6E7E8;}
	.st1{fill:url(#SVGID_1_);}
	.st2{fill:url(#SVGID_00000065766247093345720280000017132322371338569617_);}
	.st3{fill:url(#SVGID_00000117677789667038794710000014458221145147862194_);}
	.st4{fill:url(#SVGID_00000069374009466981276050000011198160925680209054_);}
	.st5{fill-rule:evenodd;clip-rule:evenodd;fill:url(#SVGID_00000126323729949541392120000018391664448744330394_);}
	.st6{fill-rule:evenodd;clip-rule:evenodd;fill:url(#SVGID_00000031898649957501676290000007273461981347562925_);}
	.st7{fill:#04335F;}
	.st8{clip-path:url(#SVGID_00000109727504580112266280000003676647403498114706_);}
	.st9{fill:#6897B8;}
	.st10{fill:#FAC27A;}
	.st11{fill:#B7DEEB;}
	.st12{fill:#FFE49F;}
	.st13{fill:#FDE8AD;}
	.st14{fill:#E0F8FF;}
	.st15{fill:#FFFFFF;}
	.st16{fill:#FFF4D0;}
	.st17{clip-path:url(#SVGID_00000056403465491091581680000015442366671370657924_);}
	.st18{fill:url(#SVGID_00000118398892360325989230000000258916897196304776_);}
	.st19{fill:url(#SVGID_00000010994345240259129330000003870150552071124645_);}
	.st20{fill:url(#SVGID_00000151527764768433828260000017751880649142066608_);}
	.st21{fill:url(#SVGID_00000183933313871186717790000000373693254309827476_);}
	.st22{fill:url(#SVGID_00000008130012480587925400000013059192840743376260_);}
	.st23{fill:url(#SVGID_00000024000753677943392600000009384953727290592695_);}
	.st24{fill:url(#SVGID_00000027582507325231170070000002119827281885417621_);}
	.st25{fill:url(#SVGID_00000005974605395729828940000017557417148397123999_);}
	.st26{fill:url(#SVGID_00000066508083288696734060000006572116240981432759_);}
	.st27{fill:url(#SVGID_00000153698186532093109470000000529497454592261267_);}
	.st28{fill:none;stroke:#04335F;stroke-width:9.7356;stroke-miterlimit:10;}
	.st29{fill-rule:evenodd;clip-rule:evenodd;fill:url(#SVGID_00000127041049939951076830000008342261097155468708_);}
	.st30{fill:url(#SVGID_00000023996397757069394150000008889922717168857788_);}
	.st31{fill-rule:evenodd;clip-rule:evenodd;fill:url(#SVGID_00000093172161962587781690000001555970985763233410_);}
	.st32{fill:url(#SVGID_00000070105882901307809390000016047733106020781724_);}
	.st33{fill:none;}
	.st34{fill:#FF00C4;}
	.st35{fill:#B902FF;}
	.st36{fill:#1312DA;}
	.st37{fill:url(#SVGID_00000011004843389701538160000010929512983836674722_);}
</style>
<g>
	<path class="st0" d="M500,1000.7c-67.6,0-133.2-13.2-194.9-39.4c-59.6-25.2-113.2-61.3-159.1-107.3c-46-46-82.1-99.5-107.3-159.1
		C12.5,633.2-0.7,567.6-0.7,500s13.2-133.2,39.4-194.9c25.2-59.6,61.3-113.2,107.3-159.1c46-46,99.5-82.1,159.1-107.3
		C366.8,12.5,432.4-0.7,500-0.7c67.6,0,133.2,13.2,194.9,39.4c59.6,25.2,113.2,61.3,159.1,107.3c46,46,82.1,99.5,107.3,159.1
		c26.1,61.8,39.4,127.3,39.4,194.9s-13.2,133.2-39.4,194.9c-25.2,59.6-61.3,113.2-107.3,159.1c-46,46-99.5,82.1-159.1,107.3
		C633.2,987.5,567.6,1000.7,500,1000.7z M500,74.2c-57.5,0-113.3,11.3-165.7,33.4c-50.7,21.4-96.2,52.2-135.4,91.3
		c-39.1,39.1-69.8,84.7-91.3,135.4C85.4,386.7,74.2,442.5,74.2,500s11.3,113.3,33.4,165.7c21.4,50.7,52.2,96.2,91.3,135.4
		c39.1,39.1,84.7,69.8,135.4,91.3c52.5,22.2,108.2,33.4,165.7,33.4c57.5,0,113.3-11.3,165.7-33.4c50.7-21.4,96.2-52.2,135.4-91.3
		c39.1-39.1,69.8-84.7,91.3-135.4c22.2-52.5,33.4-108.2,33.4-165.7s-11.3-113.3-33.4-165.7c-21.4-50.7-52.2-96.2-91.3-135.4
		c-39.1-39.1-84.7-69.8-135.4-91.3C613.3,85.4,557.5,74.2,500,74.2z"/>
	<linearGradient id="SVGID_1_" gradientUnits="userSpaceOnUse" x1="241.4524" y1="78.7903" x2="747.1259" y2="902.6026">
		<stop  offset="3.018431e-02" style="stop-color:#BAE3E2"/>
		<stop  offset="0.2605" style="stop-color:#A0DBE1"/>
		<stop  offset="0.541" style="stop-color:#86D4E1"/>
		<stop  offset="0.7958" style="stop-color:#77CFE0"/>
		<stop  offset="1" style="stop-color:#72CDE0"/>
	</linearGradient>
	<path class="st1" d="M500,992.7c-66.5,0-131-13-191.8-38.7c-58.7-24.8-111.4-60.3-156.6-105.6C106.4,803.2,70.8,750.5,46,691.8
		C20.3,631,7.3,566.5,7.3,500s13-131,38.7-191.8c24.8-58.7,60.3-111.4,105.6-156.6c45.2-45.2,97.9-80.8,156.6-105.6
		C369,20.3,433.5,7.3,500,7.3s131,13,191.8,38.7c58.7,24.8,111.4,60.3,156.6,105.6c45.2,45.2,80.8,97.9,105.6,156.6
		c25.7,60.8,38.7,125.3,38.7,191.8s-13,131-38.7,191.8c-24.8,58.7-60.3,111.4-105.6,156.6c-45.2,45.2-97.9,80.8-156.6,105.6
		C631,979.7,566.5,992.7,500,992.7z M500,66.2c-58.6,0-115.4,11.5-168.9,34.1c-51.7,21.8-98.1,53.1-137.9,93
		c-39.9,39.8-71.1,86.2-93,137.9C77.7,384.6,66.2,441.4,66.2,500s11.5,115.4,34.1,168.9c21.8,51.7,53.1,98.1,93,137.9
		c39.9,39.9,86.2,71.1,137.9,93c53.5,22.6,110.3,34.1,168.9,34.1s115.4-11.5,168.9-34.1c51.7-21.8,98.1-53.1,137.9-93
		c39.9-39.8,71.1-86.2,93-137.9c22.6-53.5,34.1-110.3,34.1-168.9s-11.5-115.4-34.1-168.9c-21.8-51.7-53.1-98.1-93-137.9
		c-39.9-39.9-86.2-71.1-137.9-93C615.4,77.7,558.6,66.2,500,66.2z"/>
</g>
<linearGradient id="SVGID_00000022545249345076761360000005125073148315159948_" gradientUnits="userSpaceOnUse" x1="223.1191" y1="120.7571" x2="775.6761" y2="877.5928">
	<stop  offset="6.092132e-02" style="stop-color:#B900FF"/>
	<stop  offset="0.1344" style="stop-color:#B401FE"/>
	<stop  offset="0.2262" style="stop-color:#A402FA"/>
	<stop  offset="0.3277" style="stop-color:#8B05F5"/>
	<stop  offset="0.4362" style="stop-color:#6709ED"/>
	<stop  offset="0.5491" style="stop-color:#3A0FE3"/>
	<stop  offset="0.6345" style="stop-color:#1313DA"/>
</linearGradient>
<circle style="fill-rule:evenodd;clip-rule:evenodd;fill:url(#SVGID_00000022545249345076761360000005125073148315159948_);" cx="500" cy="500" r="463.3"/>
<g>
	<g>
		<path class="st11" d="M391,613.1c-3.4,42.2,97.6,58.8,141.4,25.6c23.8-18.1,13.4-49.6-9.9-47.9c-0.8,0.1,0.2,8.6-2.3,14.1
			c-6.1,13.5-31.4,17.1-50.2,16.4c-23.4-0.8-44.2-8.9-52.7-16.4c17.2,19.5,78.4,23.4,99.3,8.6l2.3-1.7
			c-11.6,25.8-119.4,25.9-116.3-21.5c0.5-2.8,3.2-4.8,6-4.3c1.6,0.3,2.9,1.2,3.6,2.5c0.4-4.8,2.1-7.3,2.1-7.3
			C395.8,584.3,392.4,596.2,391,613.1z M529.3,628.2c-3.4-0.1-6.1-3-6-6.4c0.1-3.4,3-6.1,6.4-6c3.4,0.1,6.1,3,6,6.4
			C535.6,625.6,532.8,628.3,529.3,628.2z M507.8,628.5c3.4,0.1,6.1,3,6,6.4c-0.1,3.4-3,6.1-6.4,6c-3.4-0.1-6.1-3-6-6.4
			C501.5,631.1,504.4,628.4,507.8,628.5z M480.9,634.2c3.4,0.1,6.1,3,6,6.4c-0.1,3.4-3,6.1-6.4,6c-3.4-0.1-6.1-3-6-6.4
			C474.6,636.8,477.5,634.1,480.9,634.2z M451.9,632c3.4,0.1,6.1,3,6,6.4c-0.1,3.4-3,6.1-6.4,6c-3.4-0.1-6.1-3-6-6.4
			C445.6,634.6,448.5,631.9,451.9,632z M425.6,636.1c-3.4-0.1-6.1-3-6-6.4c0.1-3.4,3-6.1,6.4-6c3.4,0.1,6.1,3,6,6.4
			C431.8,633.5,429,636.2,425.6,636.1z M411.3,617.1c-0.1,3.4-3,6.1-6.4,6c-3.4-0.1-6.1-3-6-6.4c0.1-3.4,3-6.1,6.4-6
			C408.7,610.8,411.4,613.7,411.3,617.1z"/>
		<path class="st9" d="M458.8,214.3c0.6-0.3,1.3-0.7,1.9-1C460.1,213.6,459.4,213.9,458.8,214.3z"/>
		<path class="st9" d="M580.4,224.9c0.6,0.5,1.2,1,1.8,1.5C581.6,225.9,581,225.4,580.4,224.9z"/>
		<path class="st9" d="M552.7,208.6c0.6,0.3,1.3,0.5,1.9,0.8C554,209.1,553.4,208.8,552.7,208.6z"/>
		<path class="st9" d="M499.3,201.3c0.7-0.1,1.3-0.2,2-0.2C500.6,201.2,499.9,201.2,499.3,201.3z"/>
		<path class="st9" d="M494,202c0.7-0.1,1.4-0.2,2-0.3C495.4,201.8,494.7,201.9,494,202z"/>
		<path class="st9" d="M615.5,275.9c0.3,0.8,0.5,1.7,0.8,2.5C616,277.5,615.8,276.7,615.5,275.9z"/>
		<path class="st9" d="M617,280.8c0.2,0.9,0.5,1.7,0.7,2.6C617.4,282.5,617.2,281.6,617,280.8z"/>
		<path class="st9" d="M557.6,210.7c0.6,0.3,1.1,0.5,1.7,0.8C558.7,211.2,558.2,210.9,557.6,210.7z"/>
		<path class="st9" d="M463.3,211.9c0.6-0.3,1.3-0.6,1.9-0.9C464.5,211.3,463.9,211.6,463.3,211.9z"/>
		<path class="st9" d="M542.9,205.1c0.7,0.2,1.4,0.4,2.1,0.7C544.4,205.6,543.7,205.3,542.9,205.1z"/>
		<path class="st9" d="M587.9,231.6c0.6,0.6,1.1,1.1,1.7,1.7C589.1,232.7,588.5,232.2,587.9,231.6z"/>
		<path class="st9" d="M576.5,221.9c0.6,0.5,1.2,0.9,1.8,1.4C577.7,222.8,577.1,222.3,576.5,221.9z"/>
		<path class="st9" d="M484,204.2c0.6-0.2,1.2-0.3,1.8-0.4C485.2,203.8,484.6,204,484,204.2z"/>
		<path class="st9" d="M479.1,205.5c0.4-0.1,0.9-0.3,1.3-0.4C480,205.3,479.5,205.4,479.1,205.5z"/>
		<path class="st9" d="M547.9,206.7c0.7,0.2,1.4,0.5,2.1,0.7C549.2,207.2,548.6,207,547.9,206.7z"/>
		<path class="st9" d="M473.1,207.6c0.4-0.2,0.9-0.3,1.3-0.5C473.9,207.3,473.5,207.5,473.1,207.6z"/>
		<path class="st9" d="M522.4,201.1c0.7,0.1,1.4,0.2,2.1,0.2C523.8,201.3,523.1,201.2,522.4,201.1z"/>
		<path class="st9" d="M488.9,203c0.7-0.1,1.3-0.3,2-0.4C490.3,202.7,489.6,202.8,488.9,203z"/>
		<path class="st9" d="M433.7,233.5c0.5-0.6,1.1-1.1,1.7-1.7C434.8,232.3,434.2,232.9,433.7,233.5z"/>
		<path class="st9" d="M572.4,219c0.6,0.4,1.2,0.8,1.8,1.2C573.6,219.8,573,219.4,572.4,219z"/>
		<path class="st9" d="M584.3,228.2c0.6,0.5,1.2,1.1,1.8,1.6C585.4,229.2,584.9,228.7,584.3,228.2z"/>
		<path class="st9" d="M618.2,285.8c0.2,0.9,0.4,1.7,0.6,2.6C618.6,287.5,618.4,286.7,618.2,285.8z"/>
		<path class="st9" d="M467.9,209.7c0.6-0.3,1.2-0.5,1.8-0.8C469.1,209.2,468.5,209.5,467.9,209.7z"/>
		<path class="st9" d="M430.3,237.1c0.5-0.6,1.1-1.2,1.6-1.8C431.4,235.9,430.8,236.5,430.3,237.1z"/>
		<path class="st9" d="M619.2,291c0.1,0.9,0.3,1.7,0.4,2.6C619.6,292.7,619.4,291.8,619.2,291z"/>
		<path class="st9" d="M558.3,369.8c-1.8,3.6-4.2,6.7-7.3,9.2c0,0,0,0.1,0,0.1c-4.2,10.3-20.7,18.5-30.3,23
			c-11,5.2-22.5,9.7-34.1,13.9c8,1.9,16.4,2.9,25.1,2.9c60.3,0,109.2-48.9,109.2-109.2c0-5.4-0.4-10.7-1.2-15.9
			C612.3,327.7,589.2,355.7,558.3,369.8z"/>
		<path class="st9" d="M611.9,266.3c0.3,0.8,0.7,1.6,1,2.4C612.6,267.9,612.2,267.1,611.9,266.3z"/>
		<path class="st9" d="M527.7,201.7c0.7,0.1,1.4,0.2,2.2,0.4C529.1,202,528.4,201.9,527.7,201.7z"/>
		<path class="st9" d="M445.6,222.9c0.5-0.4,1.1-0.8,1.7-1.2C446.7,222.1,446.2,222.5,445.6,222.9z"/>
		<path class="st9" d="M598,242.9c0.5,0.6,1,1.2,1.4,1.9C598.9,244.1,598.5,243.5,598,242.9z"/>
		<path class="st9" d="M532.8,202.6c0.7,0.1,1.5,0.3,2.2,0.5C534.3,202.9,533.6,202.8,532.8,202.6z"/>
		<path class="st9" d="M537.9,203.8c0.7,0.2,1.5,0.4,2.2,0.6C539.4,204.1,538.7,203.9,537.9,203.8z"/>
		<path class="st9" d="M601.1,247c0.7,0.9,1.3,1.9,2,2.9C602.4,248.9,601.7,248,601.1,247z"/>
		<path class="st9" d="M607.5,257.3c0.4,0.7,0.8,1.5,1.2,2.3C608.2,258.8,607.9,258,607.5,257.3z"/>
		<path class="st9" d="M604.9,252.9c0.4,0.7,0.8,1.4,1.2,2.1C605.8,254.3,605.4,253.6,604.9,252.9z"/>
		<path class="st9" d="M594.8,238.9c0.5,0.6,1,1.2,1.6,1.8C595.8,240.1,595.3,239.5,594.8,238.9z"/>
		<path class="st9" d="M454.5,216.8c0.6-0.4,1.2-0.7,1.8-1.1C455.7,216,455.1,216.4,454.5,216.8z"/>
		<path class="st9" d="M441,226.6c0.5-0.5,1.1-0.9,1.6-1.4C442.1,225.7,441.6,226.2,441,226.6z"/>
		<path class="st9" d="M504.8,200.8c0.6,0,1.1-0.1,1.7-0.1C505.9,200.7,505.3,200.8,504.8,200.8z"/>
		<path class="st9" d="M568.1,216.3c0.5,0.3,1.1,0.7,1.6,1C569.2,216.9,568.7,216.6,568.1,216.3z"/>
		<path class="st9" d="M517.1,200.7c0.6,0,1.2,0.1,1.8,0.1C518.3,200.8,517.7,200.7,517.1,200.7z"/>
		<path class="st9" d="M450.4,219.4c0.5-0.4,1.1-0.7,1.6-1.1C451.5,218.7,450.9,219.1,450.4,219.4z"/>
		<path class="st9" d="M563,213.3c0.3,0.2,0.6,0.3,0.9,0.4C563.5,213.6,563.2,213.5,563,213.3z"/>
		<path class="st9" d="M437.2,230c0.6-0.5,1.1-1,1.7-1.6C438.3,228.9,437.8,229.5,437.2,230z"/>
		<path class="st9" d="M591.4,235.2c0.6,0.6,1.1,1.2,1.6,1.8C592.5,236.4,592,235.8,591.4,235.2z"/>
		<path class="st9" d="M609.8,261.7c0.4,0.8,0.7,1.6,1.1,2.3C610.5,263.3,610.2,262.5,609.8,261.7z"/>
		<path class="st9" d="M613.8,271c0.3,0.8,0.6,1.6,0.9,2.5C614.4,272.7,614.1,271.9,613.8,271z"/>
		<path class="st11" d="M431.9,235.3c-0.5,0.6-1.1,1.2-1.6,1.8c-0.2,0.3-0.5,0.5-0.7,0.8c3-0.5,6-1,7.1-1
			c36.9-1.1,85.8,15.3,103.5,35c15.1,16.9,1.2,44.6-19,59.4c0,0,0,0,0.1,0c3.6-1.6,7.5-2.5,11.7-2.5c15.7,0,28.4,12.7,28.4,28.4
			c0,4.5-1.1,8.8-3,12.6c30.9-14.1,54-42.1,61.4-76c0,0,0,0,0,0c0-0.1,0-0.2,0-0.2c-0.1-0.9-0.3-1.7-0.4-2.6
			c-0.1-0.9-0.3-1.7-0.5-2.6c-0.2-0.9-0.4-1.7-0.6-2.6c-0.2-0.8-0.4-1.7-0.6-2.5c-0.2-0.9-0.4-1.7-0.7-2.6c-0.2-0.8-0.4-1.6-0.7-2.4
			c-0.3-0.8-0.5-1.7-0.8-2.5c-0.3-0.8-0.5-1.6-0.8-2.3c-0.3-0.8-0.6-1.7-0.9-2.5c-0.3-0.8-0.6-1.5-0.9-2.3c-0.3-0.8-0.7-1.6-1-2.4
			c-0.3-0.8-0.7-1.5-1-2.2c-0.4-0.8-0.7-1.6-1.1-2.3c-0.4-0.7-0.8-1.5-1.1-2.2c-0.4-0.8-0.8-1.5-1.2-2.3c-0.4-0.8-0.9-1.5-1.3-2.2
			c-0.4-0.7-0.8-1.4-1.2-2.1c-0.6-1-1.3-2-1.9-3c-0.6-1-1.3-1.9-2-2.9c-0.5-0.8-1.1-1.6-1.6-2.3c-0.5-0.6-1-1.2-1.4-1.9
			c-0.5-0.7-1.1-1.4-1.6-2.1c-0.5-0.6-1-1.2-1.6-1.8c-0.6-0.7-1.1-1.3-1.7-2c-0.5-0.6-1.1-1.2-1.6-1.8c-0.6-0.6-1.2-1.3-1.8-1.9
			c-0.6-0.6-1.1-1.1-1.7-1.7c-0.6-0.6-1.3-1.2-1.9-1.8c-0.6-0.5-1.2-1.1-1.8-1.6c-0.7-0.6-1.3-1.2-2-1.7c-0.6-0.5-1.2-1-1.8-1.5
			c-0.7-0.6-1.4-1.1-2.1-1.7c-0.6-0.5-1.2-0.9-1.8-1.4c-0.8-0.6-1.5-1.1-2.3-1.7c-0.6-0.4-1.2-0.8-1.8-1.2c-0.9-0.6-1.8-1.1-2.7-1.7
			c-0.5-0.3-1-0.7-1.6-1c-1.4-0.9-2.9-1.7-4.3-2.5c-0.3-0.2-0.6-0.3-0.9-0.4c-1.2-0.6-2.4-1.3-3.7-1.9c-0.6-0.3-1.1-0.5-1.7-0.8
			c-1-0.5-1.9-0.9-2.9-1.3c-0.6-0.3-1.3-0.5-1.9-0.8c-0.9-0.4-1.9-0.8-2.8-1.1c-0.7-0.3-1.4-0.5-2.1-0.7c-0.9-0.3-1.9-0.6-2.8-0.9
			c-0.7-0.2-1.4-0.4-2.1-0.7c-0.9-0.3-1.9-0.5-2.8-0.8c-0.7-0.2-1.5-0.4-2.2-0.6c-1-0.2-1.9-0.5-2.9-0.7c-0.7-0.2-1.5-0.3-2.2-0.5
			c-1-0.2-2-0.4-3-0.5c-0.7-0.1-1.4-0.2-2.2-0.4c-1.1-0.2-2.1-0.3-3.2-0.4c-0.7-0.1-1.4-0.2-2.1-0.2c-1.2-0.1-2.4-0.2-3.5-0.3
			c-0.6,0-1.2-0.1-1.8-0.1c-1.8-0.1-3.6-0.1-5.4-0.1c-1.8,0-3.5,0.1-5.3,0.1c-0.6,0-1.1,0.1-1.7,0.1c-1.2,0.1-2.4,0.2-3.5,0.3
			c-0.7,0.1-1.3,0.1-2,0.2c-1.1,0.1-2.1,0.3-3.2,0.4c-0.7,0.1-1.4,0.2-2,0.3c-1,0.2-2.1,0.4-3.1,0.6c-0.7,0.1-1.3,0.3-2,0.4
			c-1.1,0.2-2.1,0.5-3.1,0.7c-0.6,0.1-1.2,0.3-1.8,0.4c-1.2,0.3-2.4,0.7-3.6,1c-0.4,0.1-0.9,0.2-1.3,0.4c-1.6,0.5-3.2,1-4.7,1.6
			c-0.4,0.2-0.9,0.3-1.3,0.5c-1.1,0.4-2.2,0.9-3.3,1.3c-0.6,0.3-1.2,0.5-1.8,0.8c-0.9,0.4-1.9,0.8-2.8,1.3c-0.6,0.3-1.3,0.6-1.9,0.9
			c-0.9,0.4-1.7,0.9-2.6,1.3c-0.6,0.3-1.3,0.7-1.9,1c-0.8,0.5-1.7,0.9-2.5,1.4c-0.6,0.4-1.2,0.7-1.8,1.1c-0.8,0.5-1.7,1.1-2.5,1.6
			c-0.5,0.4-1.1,0.7-1.6,1.1c-1.1,0.7-2.1,1.5-3.1,2.2c-0.6,0.4-1.1,0.8-1.7,1.2c-1,0.8-2,1.6-3,2.4c-0.5,0.4-1.1,0.9-1.6,1.4
			c-0.7,0.6-1.4,1.2-2.1,1.8c-0.6,0.5-1.1,1-1.7,1.6c-0.6,0.6-1.3,1.2-1.9,1.8c-0.6,0.6-1.1,1.1-1.7,1.7
			C433.1,234.1,432.5,234.7,431.9,235.3z M533.3,206.5c48.6,11.7,76.9,48.9,80.5,98c-0.1,6-5,10.8-10.9,10.7
			c-6-0.1-10.8-5-10.7-10.9c-0.1-47-27.7-77.4-71.2-92.1c-25.2-8.5,6.1,3-20-6.8C515.5,203.1,518.4,202.9,533.3,206.5z"/>
		<path class="st11" d="M424.8,585c9.5,5.3,23.8,8.9,39,10.8c17.6,2.2,36.3,2,49.6-0.7c0.2-2.2,0.5-4.4,0.7-6.6
			c-12.3,2.9-31.5,3.2-49.5,0.9c-15.2-1.9-29.5-5.4-37.7-10.5C426.2,581,425.5,583,424.8,585z"/>
		<path class="st11" d="M520.6,556.3c0.5-2.1,0.9-4.2,1.4-6.3c-12.9-1.4-34.8-4.4-53.3-7.8c-9.7-1.8-18.4-3.7-24.1-5.4
			c-0.6,1.2-1.1,2.4-1.7,3.6c-0.3,0.7-0.7,1.4-1,2.1c6.4,2.1,15.6,4.1,25.7,6C485.8,551.9,507.4,554.8,520.6,556.3z"/>
		<path class="st11" d="M529.4,522.4c0.7-2,1.3-4.1,2-6.1c-10.8-5-21.8-8.6-33.1-11.2c-11.1-2.5-22.5-3.9-34-4.4
			c-1.2,2.1-2.4,4.2-3.6,6.3c12.4,0.3,24.5,1.7,36.2,4.3C507.9,513.9,518.7,517.5,529.4,522.4z"/>
		<path class="st11" d="M511.3,469.7c10.5,2.6,21.4,7.3,32,14c0.8-2,1.6-4,2.4-6c-10.9-6.8-22.1-11.5-32.9-14.2
			c-8.3-2.1-16.4-3-24-2.8c-1.5,2.2-2.9,4.4-4.3,6.7C492.8,466.6,501.9,467.4,511.3,469.7z"/>
		<path class="st11" d="M558.3,448c0.9-2,1.7-3.9,2.6-5.9c-7.7-4.2-16.2-7.2-24.5-9.3c-9.4-2.3-18.6-3.4-25.8-3.7
			c-1.5,2.1-3,4.2-4.5,6.3c7,0,17.7,1,28.8,3.7C542.9,441.1,551.1,443.9,558.3,448z"/>
		<path class="st11" d="M529,301.1c0-9.7-7.9-17.6-17.6-17.6c-9.7,0-17.6,7.9-17.6,17.6c0,9.7,7.9,17.6,17.6,17.6
			C521.1,318.7,529,310.8,529,301.1z M518.7,289.5c4.2,0,7.6,3.4,7.6,7.6c0,4.2-3.4,7.6-7.6,7.6c-4.2,0-7.6-3.4-7.6-7.6
			C511,293,514.4,289.5,518.7,289.5z"/>
		<path class="st10" d="M531.4,385.5c-8.8-0.4-16.6-4.9-21.5-11.6c-2.1,2.7-4.9,5.1-7.6,6.9c-6.8,4.9-14.5,9.2-21.8,13.2
			c-21.8,11.7-45.2,22-68.3,30.6c-8.4,3.1-17.5,6.3-26.8,9.2c16.5-1.8,32.6-6.3,48.8-11C468.3,413,511.5,398.1,531.4,385.5z"/>
		<path class="st12" d="M500.2,370.3c1.1-1,3.2-2.6,5.7-4.5c-0.9-2.7-1.4-5.6-1.4-8.7c0-5.3,1.5-10.3,4-14.6
			c-42.3,3.2-44.1-19.7-70-37.1c-7-4.8-15.1-3.5-22.9,3.9c2.8-1.6,6.2-1.9,9.4-0.6c5.5,2.3,8.1,8.6,5.8,14.2
			c-16.5,31.7-25.4,35.3-53.8,55.5c-19.3,13.7-39.3,29-60.6,39.3c13.6-20,33.1-35.3,51.1-51.2c23-20.3,31.2-23.4,43.2-51.7
			c-2.9,3.8-5.8,8.5-8.5,14.2c-5.4,11.4-25.6,30-52,51.7c-34.6,28.5-77.3,58.3-16.9,54.2C386.7,431.4,482.3,386,500.2,370.3z"/>
		<path class="st11" d="M554.5,357.2c0-11.9-9.7-21.6-21.6-21.6c-11.9,0-21.6,9.7-21.6,21.6c0,11.9,9.7,21.6,21.6,21.6
			C544.8,378.8,554.5,369.1,554.5,357.2z M520.9,369.2c-6.6-6.6-6.6-17.4,0-24.1c6.6-6.6,17.4-6.6,24.1,0c6.6,6.6,6.6,17.4,0,24.1
			C538.3,375.8,527.5,375.8,520.9,369.2z"/>
		<path class="st7" d="M544.9,369.2c6.6-6.6,6.6-17.4,0-24.1c-6.6-6.6-17.4-6.6-24.1,0c-6.6,6.6-6.6,17.4,0,24.1
			C527.5,375.8,538.3,375.8,544.9,369.2z M523.3,347.5c4.7-4.7,11.9-5.2,17.2-1.7l-18.9,18.9C518,359.4,518.6,352.2,523.3,347.5z
			 M525.3,368.5l18.9-18.9c3.5,5.3,3,12.5-1.7,17.2C537.9,371.5,530.6,372,525.3,368.5z"/>
		<path class="st11" d="M540.5,345.8c-5.3-3.5-12.5-3-17.2,1.7c-4.7,4.7-5.2,11.9-1.7,17.2L540.5,345.8z"/>
		<path class="st11" d="M542.5,366.8c4.7-4.7,5.2-11.9,1.7-17.2l-18.9,18.9C530.6,372,537.9,371.5,542.5,366.8z"/>
		<path class="st7" d="M518.7,304.8c4.2,0,7.6-3.4,7.6-7.6c0-4.2-3.4-7.6-7.6-7.6c-4.2,0-7.6,3.4-7.6,7.6
			C511,301.4,514.4,304.8,518.7,304.8z"/>
		<path class="st11" d="M424.9,288c2.3-7.3,1.1-14.2-2.7-15.5c-3.8-1.2-8.8,3.7-11.2,11c-2.3,7.3-1.1,14.2,2.7,15.5
			C417.6,300.3,422.6,295.3,424.9,288z M418.8,282.8c1-3.2,3.2-5.3,4.8-4.8c1.7,0.5,2.2,3.5,1.2,6.7c-1,3.2-3.2,5.3-4.8,4.8
			C418.3,289,417.8,286,418.8,282.8z"/>
		<path class="st7" d="M420,289.5c1.7,0.5,3.8-1.6,4.8-4.8c1-3.2,0.5-6.2-1.2-6.7c-1.7-0.5-3.8,1.6-4.8,4.8
			C417.8,286,418.3,289,420,289.5z"/>
		<path class="st7" d="M398.9,616.7c-0.1,3.4,2.6,6.3,6,6.4c3.4,0.1,6.3-2.6,6.4-6c0.1-3.4-2.6-6.3-6-6.4
			C401.8,610.6,399,613.3,398.9,616.7z"/>
		<path class="st7" d="M529.7,615.9c-3.4-0.1-6.3,2.6-6.4,6c-0.1,3.4,2.6,6.3,6,6.4c3.4,0.1,6.3-2.6,6.4-6
			C535.8,618.8,533.1,616,529.7,615.9z"/>
		<path class="st7" d="M507.4,640.9c3.4,0.1,6.3-2.6,6.4-6c0.1-3.4-2.6-6.3-6-6.4c-3.4-0.1-6.3,2.6-6.4,6
			C501.3,637.9,504,640.8,507.4,640.9z"/>
		<path class="st7" d="M480.5,646.5c3.4,0.1,6.3-2.6,6.4-6c0.1-3.4-2.6-6.3-6-6.4c-3.4-0.1-6.3,2.6-6.4,6
			C474.4,643.6,477.1,646.4,480.5,646.5z"/>
		<path class="st7" d="M451.5,644.4c3.4,0.1,6.3-2.6,6.4-6c0.1-3.4-2.6-6.3-6-6.4c-3.4-0.1-6.3,2.6-6.4,6
			C445.4,641.4,448.1,644.3,451.5,644.4z"/>
		<path class="st7" d="M425.9,623.8c-3.4-0.1-6.3,2.6-6.4,6c-0.1,3.4,2.6,6.3,6,6.4c3.4,0.1,6.3-2.6,6.4-6
			C432,626.7,429.4,623.9,425.9,623.8z"/>
		<path class="st14" d="M521,212.2c43.5,14.7,71,45,71.2,92.1c-0.1,6,4.7,10.9,10.7,10.9c6,0.1,10.9-4.7,10.9-10.7
			c-3.6-49.1-31.9-86.3-80.5-98c-14.8-3.6-17.8-3.4-32.3-1.1C527.1,215.2,495.8,203.7,521,212.2z"/>
		<path class="st15" d="M367.7,366.5c-18,16-37.5,31.2-51.1,51.2c21.3-10.3,41.3-25.6,60.6-39.3c28.4-20.2,37.4-23.8,53.8-55.5
			c2.3-5.5-0.3-11.9-5.8-14.2c-3.2-1.3-6.6-1-9.4,0.6c-2.1,1.1-3.8,2.9-4.7,5.3c0,0.1-0.1,0.1-0.1,0.2
			C398.8,343.2,390.6,346.2,367.7,366.5z"/>
		<path class="st14" d="M408.6,586c-2.8-0.5-5.5,1.4-6,4.3c-3,47.4,104.7,47.3,116.3,21.5l-2.3,1.7c-20.9,14.8-82.1,10.8-99.3-8.6
			c-3.3-3.7-5-8-4.4-12.8c0.2-1.3-0.1-2.5-0.7-3.5C411.4,587.2,410.2,586.3,408.6,586z"/>
		<g>
			<path class="st33" d="M519,560.4c0.5-2.1,0.9-4.2,1.4-6.3c-12.9-1.4-34.8-4.4-53.3-7.8c-9.7-1.8-18.4-3.7-24.1-5.4
				c-0.6,1.2-1.1,2.4-1.7,3.6c-0.3,0.7-0.7,1.4-1,2.1c6.4,2.1,15.6,4.1,25.7,6C484.2,556,505.8,558.9,519,560.4z"/>
			<path class="st33" d="M529.3,522.4c0.7-2,1.3-4.1,2-6.1c-10.8-5-21.8-8.6-33.1-11.2c-11.1-2.5-22.5-3.9-34-4.4
				c-1.2,2.1-2.4,4.2-3.6,6.3c12.4,0.3,24.5,1.7,36.2,4.3C507.9,513.9,518.7,517.5,529.3,522.4z"/>
			<path class="st33" d="M511.3,469.7c10.5,2.6,21.4,7.3,32,14c0.8-2,1.6-4,2.4-6c-10.9-6.8-22.1-11.5-32.9-14.2
				c-8.3-2.1-16.4-3-24-2.8c-1.5,2.2-2.9,4.4-4.3,6.7C492.8,466.6,501.9,467.4,511.3,469.7z"/>
			<path class="st33" d="M620.9,309.7c0-5.4-0.4-10.7-1.2-15.9c0,0,0,0,0,0c0-0.1,0-0.2,0-0.2c-0.1-0.9-0.3-1.7-0.4-2.6
				c-0.1-0.9-0.3-1.7-0.5-2.6c-0.2-0.9-0.4-1.7-0.6-2.6c-0.2-0.8-0.4-1.7-0.6-2.5c-0.2-0.9-0.4-1.7-0.7-2.6
				c-0.2-0.8-0.4-1.6-0.7-2.4c-0.3-0.8-0.5-1.7-0.8-2.5c-0.3-0.8-0.5-1.6-0.8-2.3c-0.3-0.8-0.6-1.7-0.9-2.5
				c-0.3-0.8-0.6-1.5-0.9-2.3c-0.3-0.8-0.7-1.6-1-2.4c-0.3-0.8-0.7-1.5-1-2.2c-0.4-0.8-0.7-1.6-1.1-2.3c-0.4-0.7-0.8-1.5-1.1-2.2
				c-0.4-0.8-0.8-1.5-1.2-2.3c-0.4-0.8-0.9-1.5-1.3-2.2c-0.4-0.7-0.8-1.4-1.2-2.1c-0.6-1-1.3-2-1.9-3c-0.6-1-1.3-1.9-2-2.9
				c-0.5-0.8-1.1-1.6-1.6-2.3c-0.5-0.6-1-1.2-1.4-1.9c-0.5-0.7-1.1-1.4-1.6-2.1c-0.5-0.6-1-1.2-1.6-1.8c-0.6-0.7-1.1-1.3-1.7-2
				c-0.5-0.6-1.1-1.2-1.6-1.8c-0.6-0.6-1.2-1.3-1.8-1.9c-0.6-0.6-1.1-1.1-1.7-1.7c-0.6-0.6-1.3-1.2-1.9-1.8
				c-0.6-0.5-1.2-1.1-1.8-1.6c-0.7-0.6-1.3-1.2-2-1.7c-0.6-0.5-1.2-1-1.8-1.5c-0.7-0.6-1.4-1.1-2.1-1.7c-0.6-0.5-1.2-0.9-1.8-1.4
				c-0.8-0.6-1.5-1.1-2.3-1.7c-0.6-0.4-1.2-0.8-1.8-1.2c-0.9-0.6-1.8-1.1-2.7-1.7c-0.5-0.3-1-0.7-1.6-1c-1.4-0.9-2.9-1.7-4.3-2.5
				c-0.3-0.2-0.6-0.3-0.9-0.4c-1.2-0.6-2.4-1.3-3.7-1.9c-0.6-0.3-1.1-0.5-1.7-0.8c-1-0.5-1.9-0.9-2.9-1.3c-0.6-0.3-1.3-0.5-1.9-0.8
				c-0.9-0.4-1.9-0.8-2.8-1.1c-0.7-0.3-1.4-0.5-2.1-0.7c-0.9-0.3-1.9-0.6-2.8-0.9c-0.7-0.2-1.4-0.4-2.1-0.7
				c-0.9-0.3-1.9-0.5-2.8-0.8c-0.7-0.2-1.5-0.4-2.2-0.6c-1-0.2-1.9-0.5-2.9-0.7c-0.7-0.2-1.5-0.3-2.2-0.5c-1-0.2-2-0.4-3-0.5
				c-0.7-0.1-1.4-0.2-2.2-0.4c-1.1-0.2-2.1-0.3-3.2-0.4c-0.7-0.1-1.4-0.2-2.1-0.2c-1.2-0.1-2.4-0.2-3.5-0.3c-0.6,0-1.2-0.1-1.8-0.1
				c-1.8-0.1-3.6-0.1-5.4-0.1c-1.8,0-3.5,0.1-5.3,0.1c-0.6,0-1.1,0.1-1.7,0.1c-1.2,0.1-2.4,0.2-3.5,0.3c-0.7,0.1-1.3,0.1-2,0.2
				c-1.1,0.1-2.1,0.3-3.2,0.4c-0.7,0.1-1.4,0.2-2,0.3c-1,0.2-2.1,0.4-3.1,0.6c-0.7,0.1-1.3,0.3-2,0.4c-1.1,0.2-2.1,0.5-3.1,0.7
				c-0.6,0.1-1.2,0.3-1.8,0.5c-1.2,0.3-2.4,0.7-3.6,1c-0.4,0.1-0.9,0.2-1.3,0.4c-1.6,0.5-3.2,1-4.7,1.6c-0.4,0.2-0.9,0.3-1.3,0.5
				c-1.1,0.4-2.2,0.9-3.3,1.3c-0.6,0.3-1.2,0.5-1.8,0.8c-0.9,0.4-1.9,0.8-2.8,1.3c-0.6,0.3-1.3,0.6-1.9,0.9
				c-0.9,0.4-1.7,0.9-2.6,1.3c-0.6,0.3-1.3,0.7-1.9,1c-0.8,0.5-1.7,0.9-2.5,1.4c-0.6,0.4-1.2,0.7-1.8,1.1c-0.8,0.5-1.7,1.1-2.5,1.6
				c-0.5,0.4-1.1,0.7-1.6,1.1c-1.1,0.7-2.1,1.5-3.1,2.2c-0.6,0.4-1.1,0.8-1.7,1.2c-1,0.8-2,1.6-3,2.4c-0.5,0.4-1.1,0.9-1.6,1.4
				c-0.7,0.6-1.4,1.2-2.1,1.8c-0.6,0.5-1.1,1-1.7,1.6c-0.6,0.6-1.3,1.2-1.9,1.8c-0.6,0.6-1.1,1.1-1.7,1.7c-0.6,0.6-1.2,1.2-1.8,1.8
				c-0.5,0.6-1.1,1.2-1.6,1.8c-0.2,0.3-0.5,0.5-0.7,0.8c3-0.5,6-1,7.1-1c36.9-1.1,85.8,15.3,103.5,35c15.1,16.9,1.2,44.6-19,59.4
				c0,0,0,0,0.1,0c3.6-1.6,7.5-2.5,11.7-2.5c15.7,0,28.4,12.7,28.4,28.4c0,4.5-1.1,8.8-3,12.6c-1.8,3.6-4.2,6.7-7.3,9.2
				c0,0,0,0.1,0,0.1c-4.2,10.3-20.7,18.5-30.3,23c-11,5.2-22.5,9.7-34.1,13.9c8,1.9,16.4,2.9,25.1,2.9
				C572,418.9,620.9,370,620.9,309.7z"/>
			<path class="st33" d="M532.4,638.7c23.8-18.1,13.4-49.6-9.9-47.9c-0.8,0.1,0.2,8.6-2.3,14.1c-6.1,13.5-31.4,17.1-50.2,16.4
				c-23.4-0.8-44.2-8.9-52.7-16.4c-3.3-3.7-5-8-4.4-12.8c0.2-1.3-0.1-2.5-0.7-3.5c0.4-4.8,2.1-7.3,2.1-7.3
				c-18.5,3.1-21.9,14.9-23.2,31.9C387.7,655.4,488.6,672,532.4,638.7z"/>
			<path class="st33" d="M513.4,595.1c0.2-2.2,0.5-4.4,0.7-6.6c-12.3,2.9-31.5,3.2-49.5,0.9c-15.2-1.9-29.5-5.4-37.7-10.5
				c-0.7,2-1.4,4-2.1,6.1c9.5,5.3,23.8,8.9,39,10.8C481.4,597.9,500.2,597.8,513.4,595.1z"/>
			<path class="st33" d="M532.9,378.8c11.9,0,21.6-9.7,21.6-21.6c0-11.9-9.7-21.6-21.6-21.6c-11.9,0-21.6,9.7-21.6,21.6
				C511.3,369.1,521,378.8,532.9,378.8z"/>
			<path class="st33" d="M510,373.8c-2.1,2.7-4.9,5.1-7.6,6.9c-6.8,4.9-14.5,9.2-21.8,13.2c-21.8,11.7-45.2,22-68.3,30.6
				c-8.4,3.1-17.5,6.3-26.8,9.2c16.5-1.8,32.6-6.3,48.8-11c34-9.8,77.2-24.7,97.2-37.4C522.6,385,514.9,380.6,510,373.8z"/>
			<path class="st33" d="M384.1,628.5c2.7,7,7.3,13.3,14.7,18c0,0,0,0,0,0C392.4,641.8,387.1,635.8,384.1,628.5z"/>
			<path class="st33" d="M531.2,651.1c-3.4,2-6.9,3.8-10.5,5.3c0,0,0,0,0,0C524.6,654.8,528.1,653,531.2,651.1z"/>
			<path class="st33" d="M510.7,429.2c-1.5,2.1-3,4.2-4.5,6.3c7,0,17.7,1,28.8,3.7c8,1.9,16.1,4.8,23.4,8.9c0.9-2,1.7-3.9,2.6-5.9
				c-7.7-4.2-16.2-7.2-24.5-9.3C527,430.6,517.8,429.5,510.7,429.2z"/>
			<path class="st33" d="M413.8,299.1c3.8,1.2,8.8-3.7,11.2-11c2.3-7.3,1.1-14.2-2.7-15.5c-3.8-1.2-8.8,3.7-11.2,11
				C408.7,290.9,409.9,297.8,413.8,299.1z"/>
			<path class="st33" d="M553.6,625.4c0.2-0.4,0.3-0.7,0.5-1.1c0,0-0.1,0-0.1-0.1C553.9,624.6,553.7,625,553.6,625.4z"/>
			<path class="st33" d="M505.9,365.8c-0.9-2.7-1.4-5.7-1.4-8.7c0-5.3,1.5-10.3,4-14.6c-42.3,3.2-44.1-19.7-70-37.1
				c-7-4.8-15.1-3.5-22.9,3.9c-2.1,1.1-3.8,2.9-4.7,5.3c0,0.1-0.1,0.1-0.1,0.2c-2.9,3.8-5.8,8.5-8.5,14.2c-5.4,11.4-25.6,30-52,51.7
				c-34.6,28.5-77.3,58.3-16.9,54.2c53.3-3.6,148.9-49,166.8-64.7C501.3,369.3,503.4,367.7,505.9,365.8z"/>
			<path class="st33" d="M529,301.1c0-9.7-7.9-17.6-17.6-17.6c-9.7,0-17.6,7.9-17.6,17.6c0,9.7,7.9,17.6,17.6,17.6
				C521.1,318.7,529,310.8,529,301.1z"/>
			<path class="st7" d="M558.5,609.2c-1-8.4-4.6-16.3-10.8-22.1c-5.7-5.4-13-8.5-20.7-9.1c3.8-22.7,10.3-45,17.9-66.6
				c8.5-24.2,18.7-47.9,29.3-71.3c5.8-12.9,11.9-25.7,17.9-38.6c26.5-23.2,41.6-56.5,41.6-91.8c0-67.4-54.6-122-122-122
				c-67.4,0-122,54.6-122,122c0,4.8,0.3,9.5,0.8,14.3c-1.9,3.7-5.5,7.8-8.3,10.8c-4.5,4.9-9.4,9.6-14.3,14c-8.4,7.6-17,14.8-25.8,22
				c-2.3,1.9-4.6,3.7-6.9,5.6c-10.2,8.2-20.6,16.3-30,25.4c-6.5,6.3-14.2,14.7-15,24.2c-0.2,2.5,0.1,5,0.9,7.3
				c5.5,16.4,29.2,15.3,43,14.4c5.6-0.4,11.1-1.1,16.6-2c0.6,0.1,1.2,0.2,1.9,0.3c29.6,4.5,56.9-2.7,85.1-10.9
				c11.2-3.2,22.3-6.7,33.3-10.4c8,2.8,16.3,4.8,24.7,5.9c-14.2,20-27.5,40.8-39.8,62c-7.5,13-14.7,26.2-21.3,39.6
				c-5.8,11.7-11.1,23.7-15.8,35.9c-2.3-0.2-4.6,0.1-6.8,0.4c-14.2,2.3-22.6,8.7-27.6,18.1c-3.8,12.1-5.8,28.2-0.5,41.8
				c3.1,7.3,8.4,13.2,14.7,18c31.2,20.2,83.9,25,122,9.8c3.6-1.6,7.1-3.4,10.5-5.3C557.9,636.1,558.5,614.3,558.5,609.2z M558.3,448
				c-7.2-4.1-15.4-7-23.4-8.9c-11.2-2.7-21.8-3.7-28.8-3.7c1.5-2.1,3-4.2,4.5-6.3c7.2,0.3,16.4,1.4,25.8,3.7c8.3,2,16.8,5,24.5,9.3
				C560.1,444.1,559.2,446.1,558.3,448z M411,283.6c2.3-7.3,7.3-12.3,11.2-11c3.8,1.2,5.1,8.1,2.7,15.5c-2.3,7.3-7.3,12.3-11.2,11
				C409.9,297.8,408.7,290.9,411,283.6z M333.4,435c-60.3,4.1-17.6-25.8,16.9-54.2c26.4-21.8,46.6-40.4,52-51.7
				c2.7-5.6,5.5-10.4,8.5-14.2c0-0.1,0.1-0.1,0.1-0.2c1-2.3,2.7-4.1,4.7-5.3c7.8-7.3,15.8-8.6,22.9-3.9c25.8,17.5,27.7,40.4,70,37.1
				c-2.6,4.3-4,9.2-4,14.6c0,3,0.5,5.9,1.4,8.7c-2.5,1.9-4.5,3.5-5.7,4.5C482.3,386,386.7,431.4,333.4,435z M511.4,318.7
				c-9.7,0-17.6-7.9-17.6-17.6c0-9.7,7.9-17.6,17.6-17.6c9.7,0,17.6,7.9,17.6,17.6C529,310.8,521.1,318.7,511.4,318.7z M532.9,335.5
				c11.9,0,21.6,9.7,21.6,21.6c0,11.9-9.7,21.6-21.6,21.6c-11.9,0-21.6-9.7-21.6-21.6C511.3,345.2,521,335.5,532.9,335.5z
				 M434.3,422.8c-16.2,4.7-32.3,9.2-48.8,11c9.3-2.9,18.4-6.1,26.8-9.2c23.1-8.7,46.5-18.9,68.3-30.6c7.3-3.9,15.1-8.3,21.8-13.2
				c2.6-1.9,5.5-4.2,7.6-6.9c4.9,6.7,12.7,11.2,21.5,11.6C511.5,398.1,468.3,413,434.3,422.8z M486.7,416
				c11.6-4.2,23.1-8.7,34.1-13.9c9.5-4.5,26.1-12.7,30.3-23c0,0,0-0.1,0-0.1c3-2.5,5.5-5.7,7.3-9.2c1.9-3.8,3-8.1,3-12.6
				c0-15.7-12.7-28.4-28.4-28.4c-4.2,0-8.1,0.9-11.7,2.5c0,0,0,0-0.1,0c20.2-14.8,34.1-42.5,19-59.4c-17.6-19.8-66.6-36.1-103.5-35
				c-1.1,0-4.1,0.5-7.1,1c0.2-0.3,0.5-0.5,0.7-0.8c0.5-0.6,1.1-1.2,1.6-1.8c0.6-0.6,1.2-1.2,1.8-1.8c0.5-0.6,1.1-1.1,1.7-1.7
				c0.6-0.6,1.3-1.2,1.9-1.8c0.6-0.5,1.1-1,1.7-1.6c0.7-0.6,1.4-1.2,2.1-1.8c0.5-0.5,1.1-0.9,1.6-1.4c1-0.8,2-1.6,3-2.4
				c0.5-0.4,1.1-0.8,1.7-1.2c1-0.8,2.1-1.5,3.1-2.2c0.5-0.4,1.1-0.7,1.6-1.1c0.8-0.5,1.7-1.1,2.5-1.6c0.6-0.4,1.2-0.7,1.8-1.1
				c0.8-0.5,1.6-1,2.5-1.4c0.6-0.3,1.3-0.7,1.9-1c0.8-0.4,1.7-0.9,2.6-1.3c0.6-0.3,1.3-0.6,1.9-0.9c0.9-0.4,1.8-0.8,2.8-1.3
				c0.6-0.3,1.2-0.5,1.8-0.8c1.1-0.5,2.2-0.9,3.3-1.3c0.4-0.2,0.9-0.3,1.3-0.5c1.6-0.6,3.1-1.1,4.7-1.6c0.4-0.1,0.9-0.3,1.3-0.4
				c1.2-0.4,2.4-0.7,3.6-1c0.6-0.2,1.2-0.3,1.8-0.5c1-0.3,2.1-0.5,3.1-0.7c0.7-0.1,1.3-0.3,2-0.4c1-0.2,2.1-0.4,3.1-0.6
				c0.7-0.1,1.4-0.2,2-0.3c1.1-0.2,2.1-0.3,3.2-0.4c0.7-0.1,1.3-0.2,2-0.2c1.2-0.1,2.3-0.2,3.5-0.3c0.6,0,1.1-0.1,1.7-0.1
				c1.7-0.1,3.5-0.1,5.3-0.1c1.8,0,3.6,0,5.4,0.1c0.6,0,1.2,0.1,1.8,0.1c1.2,0.1,2.4,0.2,3.5,0.3c0.7,0.1,1.4,0.2,2.1,0.2
				c1.1,0.1,2.1,0.2,3.2,0.4c0.7,0.1,1.4,0.2,2.2,0.4c1,0.2,2,0.3,3,0.5c0.7,0.1,1.5,0.3,2.2,0.5c1,0.2,1.9,0.4,2.9,0.7
				c0.7,0.2,1.5,0.4,2.2,0.6c0.9,0.3,1.9,0.5,2.8,0.8c0.7,0.2,1.4,0.4,2.1,0.7c0.9,0.3,1.9,0.6,2.8,0.9c0.7,0.2,1.4,0.5,2.1,0.7
				c0.9,0.4,1.9,0.7,2.8,1.1c0.6,0.3,1.3,0.5,1.9,0.8c1,0.4,2,0.9,2.9,1.3c0.6,0.3,1.1,0.5,1.7,0.8c1.2,0.6,2.4,1.2,3.7,1.9
				c0.3,0.2,0.6,0.3,0.9,0.4c1.5,0.8,2.9,1.6,4.3,2.5c0.5,0.3,1.1,0.7,1.6,1c0.9,0.6,1.8,1.1,2.7,1.7c0.6,0.4,1.2,0.8,1.8,1.2
				c0.8,0.5,1.6,1.1,2.3,1.7c0.6,0.5,1.2,0.9,1.8,1.4c0.7,0.6,1.4,1.1,2.1,1.7c0.6,0.5,1.2,1,1.8,1.5c0.7,0.6,1.3,1.2,2,1.7
				c0.6,0.5,1.2,1.1,1.8,1.6c0.6,0.6,1.3,1.2,1.9,1.8c0.6,0.6,1.1,1.1,1.7,1.7c0.6,0.6,1.2,1.2,1.8,1.9c0.6,0.6,1.1,1.2,1.6,1.8
				c0.6,0.6,1.1,1.3,1.7,2c0.5,0.6,1,1.2,1.6,1.8c0.6,0.7,1.1,1.4,1.6,2.1c0.5,0.6,1,1.2,1.4,1.9c0.6,0.8,1.1,1.5,1.6,2.3
				c0.7,0.9,1.3,1.9,2,2.9c0.6,1,1.3,2,1.9,3c0.4,0.7,0.8,1.4,1.2,2.1c0.4,0.7,0.9,1.5,1.3,2.2c0.4,0.7,0.8,1.5,1.2,2.3
				c0.4,0.7,0.8,1.5,1.1,2.2c0.4,0.8,0.7,1.6,1.1,2.3c0.3,0.7,0.7,1.5,1,2.2c0.3,0.8,0.7,1.6,1,2.4c0.3,0.8,0.6,1.5,0.9,2.3
				c0.3,0.8,0.6,1.6,0.9,2.5c0.3,0.8,0.5,1.6,0.8,2.3c0.3,0.8,0.5,1.7,0.8,2.5c0.2,0.8,0.5,1.6,0.7,2.4c0.2,0.9,0.5,1.7,0.7,2.6
				c0.2,0.8,0.4,1.6,0.6,2.5c0.2,0.9,0.4,1.7,0.6,2.6c0.2,0.8,0.3,1.7,0.5,2.6c0.2,0.9,0.3,1.7,0.4,2.6c0,0.1,0,0.2,0,0.2
				c0,0,0,0,0,0c0.8,5.2,1.2,10.5,1.2,15.9c0,60.3-48.9,109.2-109.2,109.2C503.1,418.9,494.7,417.9,486.7,416z M488.8,460.7
				c7.6-0.2,15.7,0.7,24,2.8c10.8,2.7,22,7.4,32.9,14.2c-0.8,2-1.6,4-2.4,6c-10.6-6.7-21.5-11.4-32-14c-9.4-2.3-18.5-3.1-26.8-2.3
				C485.9,465.2,487.3,463,488.8,460.7z M464.2,500.8c11.6,0.5,22.9,1.9,34,4.4c11.3,2.5,22.3,6.2,33.1,11.2c-0.7,2-1.3,4.1-2,6.1
				c-10.6-5-21.4-8.6-32.5-11c-11.8-2.6-23.8-4-36.2-4.3C461.9,505,463,502.9,464.2,500.8z M441.3,544.5c0.6-1.2,1.1-2.4,1.7-3.6
				c5.8,1.7,14.5,3.6,24.1,5.4c18.5,3.4,40.4,6.4,53.3,7.8c-0.5,2.1-1,4.2-1.4,6.3c-13.3-1.4-34.8-4.4-53-7.8
				c-10.1-1.9-19.3-3.9-25.7-6C440.6,545.9,441,545.2,441.3,544.5z M426.9,579c8.2,5,22.5,8.6,37.7,10.5c18,2.2,37.2,2,49.5-0.9
				c-0.3,2.2-0.5,4.4-0.7,6.6c-13.2,2.7-32,2.8-49.6,0.7c-15.2-1.9-29.5-5.5-39-10.8C425.5,583,426.2,581,426.9,579z M391,613.1
				c1.4-16.9,4.7-28.8,23.2-31.9c0,0-1.7,2.4-2.1,7.3c0.6,1,0.9,2.2,0.7,3.5c-0.5,4.8,1.2,9.1,4.4,12.8c8.5,7.5,29.2,15.5,52.7,16.4
				c18.8,0.7,44.1-2.9,50.2-16.4c2.5-5.5,1.5-14,2.3-14.1c23.2-1.7,33.7,29.9,9.9,47.9C488.6,672,387.7,655.4,391,613.1z"/>
		</g>
	</g>
	<g>
		<path class="st7" d="M599.3,296.9c-2.9-0.4-5.9-1-8.8-1.7c-18.8-3.9-37.2-10-54.7-18c-2.1-0.9-4.3-1.9-6.5-2.9
			c-15.3-7-30-15.6-43.6-25.6c-1.5-1.1-3.1-2.2-4.6-3.3c-7.7-5.9-14.5-12.9-20.3-20.7c-2.3-3.1-4.4-6.4-6.4-9.8c0,0-0.1-0.1-0.1-0.1
			c-0.4-0.8-0.8-1.6-1.2-2.4c-0.8-1.6-1.4-3.3-1.9-5c-0.3-0.9-0.5-1.7-0.7-2.6c-0.5-2.2-0.3-4.5,0.6-6.5l22-49.6l-41.4-38.6
			c-3.2-3-4.2-7.7-2.4-11.7c1.8-4,5.9-6.5,10.3-6.1l168.1,14.4c0.2,0,0.4,0,0.6,0.1c2.1,0.3,4,1.2,5.5,2.7l123.5,115
			c3.2,3,4.2,7.7,2.4,11.7s-6,6.5-10.3,6.1l-5.8-0.5l-50.6-4.3l-22,49.6c-0.9,2-2.5,3.7-4.4,4.8c-3.1,1.7-6.4,3-9.9,3.8
			c-0.1,0-0.1,0-0.2,0C624.3,298.3,611.8,298.7,599.3,296.9C599.3,296.9,599.3,296.9,599.3,296.9z"/>
		<path class="st11" d="M491.8,240.3c-11.6-8-21.2-18.4-28.2-30.6c-1.3-2.3-2.2-4.7-2.8-7.3l24.5-55.3l0.7-0.8l76.4,71.1l104,8.9
			l-0.1,1l-24.5,55.3c-2.3,1.3-4.7,2.2-7.3,2.8c-13.7,3-28,2.8-41.6-0.4c-18.2-3.8-35.9-9.6-52.8-17.4
			C523,260.4,506.8,251.2,491.8,240.3L491.8,240.3z"/>
		<path class="st9" d="M666.3,226.4l-104-8.9L486,146.4l-0.7,0.8l-24.5,55.3c0.6,2.5,1.5,5,2.8,7.3c7,12.2,16.7,22.6,28.2,30.6
			c15,11,31.2,20.2,48.3,27.4c5.3,2.4,10.4,4.5,15.3,6.4c-16.3-10.1-22.6-30.6-14.8-48.1l4.6-10.3l12.8,11.9l104,8.9l0.3,0l4-9
			L666.3,226.4z"/>
		<path class="st7" d="M692.3,333.9c-0.2,0-0.3-0.1-0.5-0.1c-0.2,0-0.4-0.1-0.6-0.1c-0.5-0.1-1-0.2-1.5-0.4c-0.1,0-0.3-0.1-0.6-0.2
			c-0.7-0.2-1.3-0.5-2-0.8l-12.3-5.5c-0.6-0.3-1.2-0.6-1.9-0.9c-0.2-0.1-0.4-0.2-0.5-0.3c-0.4-0.3-0.8-0.5-1.2-0.8
			c-0.2-0.1-0.3-0.2-0.5-0.4c-0.1-0.1-0.3-0.2-0.4-0.4c-0.3-0.2-0.5-0.4-0.8-0.7c-0.1-0.1-0.3-0.3-0.5-0.5c-0.2-0.2-0.5-0.5-0.8-0.8
			c-0.2-0.2-0.4-0.4-0.6-0.6c-0.2-0.3-0.4-0.5-0.6-0.8c-0.2-0.2-0.4-0.5-0.6-0.8c0,0-0.1-0.1-0.1-0.1c-0.2-0.2-0.3-0.5-0.4-0.7
			c-0.2-0.2-0.4-0.6-0.5-0.9c-0.1-0.2-0.2-0.5-0.4-0.7c-0.2-0.3-0.3-0.6-0.5-1c-0.1-0.2-0.2-0.4-0.3-0.6c0,0,0-0.1-0.1-0.1
			c-0.1-0.3-0.2-0.6-0.3-1c-0.1-0.2-0.1-0.5-0.2-0.8c0,0,0-0.2,0-0.2c-0.1-0.3-0.1-0.6-0.2-0.8c-0.1-0.3-0.1-0.6-0.2-0.9
			c-0.1-0.4-0.1-0.6-0.1-0.9c-0.1-0.4-0.1-0.8-0.1-1.1c0-0.3,0-0.6,0-0.8c0-0.3,0-0.7,0-1c0-0.4,0-0.6,0-0.9c0-0.3,0.1-0.7,0.1-1
			c0-0.3,0.1-0.6,0.1-0.9c0-0.2,0.1-0.5,0.2-0.8c0.1-0.4,0.2-0.7,0.3-1.1c0-0.2,0.1-0.4,0.2-0.6c0,0,0-0.1,0-0.1
			c0.1-0.3,0.2-0.6,0.3-0.9c0.1-0.2,0.1-0.3,0.2-0.5c0.1-0.2,0.2-0.4,0.3-0.6c0.2-0.4,0.4-0.9,0.7-1.3c0.1-0.1,0.2-0.3,0.3-0.5
			c0.5-0.8,0.9-1.4,1.3-2c0.3-0.3,0.5-0.7,0.9-1l25.7-26.3l18.9-42.7c1.8-4,5.9-6.5,10.3-6.1l2.9,0.2l2.9,0.3c0.2,0,0.4,0,0.6,0.1
			c3.1,0.5,5.8,2.3,7.4,5c1.7,2.9,1.9,6.4,0.5,9.4l-19.7,44.4l-2.3,36.7c0,0.5-0.1,0.9-0.2,1.4c-0.1,0.7-0.3,1.5-0.6,2.2
			c-0.1,0.2-0.1,0.4-0.2,0.6c-0.1,0.4-0.3,0.9-0.5,1.3c-0.1,0.3-0.2,0.5-0.3,0.8c0,0-0.1,0.2-0.2,0.3c-0.2,0.3-0.3,0.6-0.5,0.9
			c-0.1,0.2-0.2,0.4-0.4,0.6c-0.2,0.3-0.4,0.7-0.7,1c-0.1,0.2-0.3,0.4-0.5,0.7c-0.2,0.3-0.4,0.5-0.6,0.7c-0.2,0.3-0.5,0.5-0.7,0.8
			c-0.2,0.2-0.4,0.4-0.6,0.6c-0.2,0.2-0.5,0.5-0.8,0.7c-0.1,0.1-0.3,0.3-0.5,0.4c-0.4,0.3-0.6,0.5-1,0.7c-0.3,0.2-0.5,0.3-0.7,0.5
			c-0.3,0.2-0.6,0.4-0.9,0.5c-0.2,0.1-0.4,0.2-0.7,0.3c0,0-0.1,0.1-0.1,0.1c-0.3,0.2-0.6,0.3-0.9,0.4c-0.2,0.1-0.6,0.2-0.9,0.4
			c-0.2,0.1-0.5,0.2-0.7,0.3c-0.4,0.1-0.7,0.2-1.1,0.3c-0.2,0.1-0.4,0.1-0.7,0.2c-0.4,0.1-0.7,0.2-1.1,0.2c-0.3,0-0.6,0.1-0.9,0.1
			c-0.3,0-0.6,0.1-1,0.1c-0.3,0-0.6,0-0.9,0.1c-0.3,0-0.6,0-0.9,0c-0.4,0-0.8,0-1.2,0c-0.3,0-0.5,0-0.8-0.1c-0.2,0-0.4,0-0.7-0.1
			C692.6,333.9,692.4,333.9,692.3,333.9z"/>
		<path class="st12" d="M704.7,316.3c-1,5-5.9,8.3-10.9,7.4c-0.8-0.2-1.5-0.4-2.3-0.8l-12.6-5.6c-4.8-1.9-7-7.4-5.1-12.1
			c0.3-0.7,0.7-1.4,1.2-2.1l32.5-33.3L704.7,316.3z"/>
		<path class="st7" d="M560.8,227.7c-2.1-0.3-4-1.2-5.5-2.7l-76.4-71.1l-47.1-43.9c-3.2-3-4.2-7.7-2.4-11.7c1.8-4,5.9-6.5,10.3-6.1
			l168.1,14.4c0.2,0,0.4,0,0.6,0.1c2.1,0.3,4,1.2,5.5,2.7l123.5,115c3.2,3,4.2,7.7,2.4,11.7s-6,6.5-10.3,6.1l-5.8-0.5l-58.3-4.9
			l-104-8.9C561.3,227.7,561.1,227.7,560.8,227.7z"/>
		<path class="st14" d="M607,116.9l123.5,115l-5.8-0.5l-58.3-4.9l-104-8.9L486,146.4l-47.1-43.9L607,116.9z"/>
		<path class="st11" d="M549.5,151.6c10.4-23.4,35.6-36.5,60.7-31.7l-3.2-3l-168.1-14.4l47.1,43.9l76.4,71.1l4.4,0.4
			C546.3,202.5,539.1,175,549.5,151.6z"/>
		<path class="st14" d="M707.1,277.7l20.5-46.1l-2.9-0.3l-2.9-0.2l-19.7,44.4l5.5-5.6L707.1,277.7z"/>
		<path class="st10" d="M704.7,316.3l0.3-4.7c-5.2,3.2-11.9,1.6-15.1-3.6c-1.9-3.1-2.2-6.9-0.7-10.2l18.4-27.9l-32.5,33.3
			c-3.1,4.1-2.3,9.9,1.9,13c0.6,0.5,1.3,0.9,2.1,1.2l12.6,5.6c4.6,2.2,10.2,0.3,12.4-4.3C704.3,317.8,704.6,317.1,704.7,316.3
			L704.7,316.3z"/>
	</g>
</g>
<g>
	<g>
		<path class="st10" d="M736.2,648.3c-12.9,0-25.9-4.3-36.6-13.2c-27.5-22.7-58.4-40.4-91.7-52.6c-34.5-12.6-70.8-19-107.9-19
			s-73.4,6.4-107.9,19c-33.3,12.2-64.2,29.9-91.7,52.6c-24.5,20.2-60.7,16.7-80.9-7.7c-20.2-24.5-16.7-60.7,7.7-80.9
			c37.6-31,79.8-55.2,125.4-71.9c47.2-17.3,96.8-26,147.4-26s100.3,8.8,147.4,26c45.6,16.7,87.8,40.9,125.4,71.9
			c24.5,20.2,28,56.5,7.7,80.9C769.2,641.1,752.7,648.3,736.2,648.3z"/>
	</g>
	<g>
		<path class="st7" d="M268.4,581.9c-12.2-18.7-11.8-30.1,3.4-40c5.8-3.8,14.4-7.6,19.3-9.5l4.9,8.3c-4.2,2.1-11.6,6.1-16.6,9.4
			c-8.9,5.8-9.6,10.4-0.3,24.9c8.9,13.7,13.3,16.3,22.6,10.2c2.3-1.5,4.8-3.3,6.1-4.4l-6.5-10l-4.7,3l-5.9-9.1l14.9-9.7l17.3,26.7
			c-4.1,3.7-11.5,9.9-16.4,13.1C289.9,605.7,279.6,599.1,268.4,581.9z"/>
		<path class="st7" d="M306.6,522.4l21.6-9.8c12.7-5.8,22.2-3.3,28,9.4c3.5,7.7,2.7,14.3-0.9,19.8l17.6,17.7l-12.4,5.6l-15-15.7
			l-10.9,5l8.5,18.7l-11.3,5.1L306.6,522.4z M340.8,539.8c5.7-2.6,6.2-7.6,3.9-12.5c-2.4-5.3-6.7-7.6-12.1-5.2l-10.3,4.7l8.1,17.7
			L340.8,539.8z"/>
		<path class="st7" d="M371.7,495.7l22.7-6.5l30.2,55l-11.9,3.4l-5.4-10l-20.6,5.9l0.7,11.3l-11.9,3.4L371.7,495.7z M402,527.9
			l-14-26.2l-4.2,1.2l2.1,29.6L402,527.9z"/>
		<path class="st7" d="M422.5,482.5l20.4-2.7c21.1-2.8,27,5.6,29.6,25.8c2.7,20.7,0.2,32-21.6,34.9l-20.4,2.7L422.5,482.5z
			 M449.5,529.7c12-1.6,12.1-9.1,10.4-22.5c-1.8-13.3-3.6-18.3-15.6-16.7l-8.1,1.1l5.2,39.3L449.5,529.7z"/>
		<path class="st7" d="M485.2,516l0.9-40.5l12.4,0.3l-0.9,40.8c-0.2,7.3,3.4,10.8,10.7,10.9c7.3,0.2,11-3.3,11.1-10.5l0.9-40.8
			l12.4,0.3l-0.9,40.5c-0.3,15.3-8.5,21.6-23.8,21.3C492.7,538,484.9,531.3,485.2,516z"/>
		<path class="st7" d="M560.4,480.1l23.2,4l3.2,62.7l-12.2-2.1l-0.5-11.3l-21.1-3.6l-4.3,10.5l-12.2-2.1L560.4,480.1z M573.5,522.3
			l-1.2-29.7l-4.3-0.7l-11.1,27.6L573.5,522.3z"/>
		<path class="st7" d="M614.7,503.2l-15.7-4.8l3.2-10.5l43,13.2l-3.2,10.5l-15.5-4.8l-14.8,48l-11.9-3.7L614.7,503.2z"/>
		<path class="st7" d="M658.2,506.3l36,16.5l-4.5,9.8L665,521.3l-6,13l19.8,9.1l-4.4,9.7l-19.8-9.1l-6.1,13.3l24.7,11.3l-4.5,9.8
			l-36-16.5L658.2,506.3z"/>
		<path class="st7" d="M709,530.8l17.3,11.2c17.9,11.6,16.9,21.7,5.9,38.8c-11.3,17.5-20.6,24.5-39.1,12.6l-17.3-11.2L709,530.8z
			 M699,584.4c10.1,6.5,15.1,1,22.5-10.5c7.3-11.3,9.1-16.3-1-22.8l-6.9-4.4l-21.5,33.3L699,584.4z"/>
	</g>
</g>
<g>
	<g>
		<path class="st15" d="M257.2,820.6h43.3c8.1,0,12.1-4.1,12.1-12.2V699.6c0-8.2-4-12.3-12.1-12.3h-43.3c-7.9,0-11.8,4.1-11.8,12.3
			v108.8C245.3,816.5,249.3,820.6,257.2,820.6z M265.3,704.4h27.3v99h-27.3V704.4z"/>
		<path class="st15" d="M384.9,744.7c0-7-3.5-10.5-10.6-10.5c-3.4,0-7.9,0.5-13.6,1.4c-4.5,0.7-9.1,1.4-13.6,2.1v-3.2h-19.5V852H347
			v-31.4c1.4,0,3.6,0.1,6.7,0.2c3.1,0.1,5.5,0.2,7.2,0.2c7.4,0,12.9-1,16.5-3c5-2.8,7.5-7.7,7.5-14.6V744.7z M365.3,797.9
			c0,4.3-2.1,6.5-6.2,6.5H347v-53.2l18.3-0.3V797.9z"/>
		<path class="st15" d="M448.9,782.2l5.4-5.4v-31.6c0-7.1-3.7-10.6-11-10.6h-33.6c-7.3,0-11,3.5-11,10.6v64.7
			c0,7.1,3.7,10.6,11,10.6h33.6c7.3,0,11-3.5,11-10.6v-18h-18.6v14.3h-18.3v-24.1H448.9z M417.4,748.9h18.3v20.6h-18.3V748.9z"/>
		<path class="st15" d="M468.4,734.6v86H488v-69.4l18.3-0.3v69.7h19.6v-75.9c0-7-3.5-10.5-10.6-10.5c-3.6,0-8.1,0.5-13.7,1.4
			c-4.5,0.7-9,1.4-13.5,2.1v-3.2H468.4z"/>
		<path class="st15" d="M560.4,704.1h24.4v25.1h19.9v-29.8c0-8.1-4-12.1-12.1-12.1h-40.1c-8,0-12,4.1-12,12.3v29.6
			c0,2.9,0.7,5.4,2,7.6c0.6,1.1,1.4,2.1,2.4,3l39.9,37.8v26.1h-24.4v-27.2h-19.9v31.8c0,8.1,4,12.2,12,12.2h40.1
			c8.1,0,12.1-4.1,12.1-12.2v-31.8c0-4.5-1.4-8.1-4.3-10.8l-30.8-29l-9.2-8.7V704.1z"/>
		<path class="st15" d="M640.1,704.1h24.4v25.1h19.9v-29.8c0-8.1-4-12.1-12.1-12.1h-40.1c-8,0-12,4.1-12,12.3v29.6
			c0,2.9,0.7,5.4,2,7.6c0.6,1.1,1.4,2.1,2.4,3l39.9,37.8v26.1h-24.4v-27.2h-19.9v31.8c0,8.1,4,12.2,12,12.2h40.1
			c8.1,0,12.1-4.1,12.1-12.2v-31.8c0-4.5-1.4-8.1-4.3-10.8l-30.8-29l-9.2-8.7V704.1z"/>
		<polygon class="st15" points="700.2,687.3 700.2,712.5 700.2,820.6 720.2,820.6 720.2,761.7 749.6,761.7 749.6,744.4 720.2,744.4 
			720.2,704.9 754.7,704.9 754.7,687.3 722.5,687.3 		"/>
	</g>
</g>
</svg>
