<svg enable-background="new 0 0 1000 200" version="1.1" viewBox="0 0 1e3 200" xml:space="preserve" xmlns="http://www.w3.org/2000/svg">
<style type="text/css">
.st0{fill:#FFFFFF;}
.st1{fill:#373A36;}
</style>
<path class="st1" d="m254.71 111.35h44.806v6.3406h-37.832v26.63h35.19v6.3406h-35.19v35.506h-6.9745v-74.818z"/>
<path class="st1" d="m315.16 148.76c0-5.7067 0.95087-10.954 2.8526-15.747 1.9025-4.7902 4.5443-8.9289 7.9261-12.416 3.3811-3.4873 7.4495-6.2177 12.205-8.1896 4.755-1.972 9.9859-2.9587 15.693-2.9587 5.7059 0 10.937 0.98678 15.693 2.9587 4.755 1.972 8.8235 4.7024 12.205 8.1896 3.3819 3.4872 6.0229 7.626 7.9246 12.416 1.9033 4.7934 2.8533 10.04 2.8533 15.747s-0.95004 10.973-2.8533 15.798c-1.9017 4.8253-4.5427 8.9816-7.9246 12.47-3.3819 3.4872-7.4503 6.1985-12.205 8.1369-4.7567 1.9352-9.9875 2.906-15.693 2.906-5.7067 0-10.938-0.97081-15.693-2.906-4.7559-1.9384-8.8243-4.6497-12.205-8.1369-3.3818-3.4888-6.0236-7.6451-7.9261-12.47-1.9017-4.8253-2.8526-10.091-2.8526-15.798zm6.9745 0c0 4.6497 0.73926 8.9816 2.2186 12.997s3.5934 7.503 6.3406 10.462c2.748 2.9587 6.0763 5.2836 9.9859 6.9745 3.9104 1.6909 8.2958 2.5356 13.157 2.5356 4.8612 0 9.2466-0.84468 13.156-2.5356 3.9104-1.6909 7.2396-4.0158 9.9875-6.9745 2.7464-2.9587 4.8604-6.446 6.339-10.462 1.4802-4.0158 2.2195-8.3477 2.2195-12.997 0-4.6497-0.73929-8.9832-2.2195-12.999-1.4785-4.0158-3.5926-7.503-6.339-10.462-2.748-2.9587-6.0771-5.2836-9.9875-6.9745-3.9096-1.6909-8.295-2.5356-13.156-2.5356-4.8612 0-9.2466 0.84467-13.157 2.5356-3.9096 1.6909-7.2379 4.0158-9.9859 6.9745-2.7472 2.9587-4.8612 6.446-6.3406 10.462s-2.2186 8.3493-2.2186 12.999z"/>
<path class="st1" d="m468.22 157.53c0 4.0174-0.45987 7.8575-1.3732 11.519-0.9165 3.6645-2.4494 6.9058-4.597 9.7241-2.1508 2.8166-4.9674 5.0712-8.4547 6.7621s-7.7664 2.5372-12.839 2.5372c-5.0728 0-9.352-0.84625-12.839-2.5372s-6.3055-3.9455-8.4547-6.7621c-2.1492-2.8182-3.682-6.0596-4.597-9.7241-0.91653-3.6613-1.3732-7.5014-1.3732-11.519v-46.179h6.9745v44.384c0 2.6777 0.24591 5.5311 0.73929 8.5584 0.49179 3.0306 1.4626 5.8488 2.906 8.4547 1.4435 2.6075 3.4872 4.7551 6.1298 6.446 2.641 1.6909 6.1458 2.5356 10.514 2.5356 4.3671 0 7.8735-0.84468 10.514-2.5356 2.6426-1.6909 4.6848-3.8385 6.1298-6.446 1.4419-2.6059 2.4111-5.4241 2.906-8.4547 0.49182-3.0274 0.73929-5.8807 0.73929-8.5584v-44.384h6.9745v46.179z"/>
<path class="st1" d="m494.14 111.35h8.9816l45.547 65.518h0.21075v-65.518h6.9745v74.818h-8.9832l-45.545-65.518h-0.21237v65.518h-6.9729v-74.818z"/>
<path class="st1" d="m582.22 111.35h23.143c6.4811 0 11.975 0.79357 16.485 2.3775 4.5075 1.5855 8.2598 3.6118 11.255 6.0771 2.9922 2.4653 5.3522 5.1957 7.0798 8.1896 1.7245 2.9939 2.9939 5.8648 3.8034 8.6111 0.80957 2.7496 1.3221 5.2309 1.5329 7.4503 0.21075 2.2194 0.31775 3.7874 0.31775 4.7039s-0.10699 2.4829-0.31775 4.7008c-0.21082 2.2194-0.72333 4.7039-1.5329 7.4503-0.80951 2.748-2.0789 5.6205-3.8034 8.6127-1.7277 2.9955-4.0876 5.7258-7.0798 8.1912-2.9955 2.4653-6.7478 4.49-11.255 6.0755-4.5092 1.5855-10.003 2.3775-16.485 2.3775h-23.143v-74.818zm6.9745 68.477h14.372c4.9307 0 9.5452-0.61475 13.844-1.849 4.2952-1.2311 8.0299-3.1184 11.201-5.654 3.1696-2.5356 5.67-5.7594 7.5031-9.6698 1.8314-3.9088 2.7479-8.5409 2.7479-13.895s-0.9165-9.9859-2.7479-13.898c-1.8331-3.9088-4.3335-7.131-7.5031-9.6682-3.1711-2.5372-6.9058-4.4213-11.201-5.654-4.2984-1.2311-8.9129-1.849-13.844-1.849h-14.372v62.137z"/>
<path class="st1" d="m687.82 111.35h7.1869l31.491 74.818h-7.8208l-8.1369-19.866h-39.628l-8.4547 19.866h-7.2906l32.653-74.818zm3.2765 7.6084-17.436 41.002h34.344l-16.908-41.002z"/>
<path class="st1" d="m751.88 117.69h-25.573v-6.3406h58.121v6.3406h-25.573v68.477h-6.9745v-68.477z"/>
<path class="st1" d="m802.63 111.35h6.9745v74.818h-6.9745v-74.818z"/>
<path class="st1" d="m832 148.76c0-5.7067 0.95166-10.954 2.8533-15.747 1.9017-4.7902 4.5443-8.9289 7.9261-12.416 3.3819-3.4873 7.4503-6.2177 12.205-8.1896s9.9859-2.9587 15.693-2.9587c5.7067 0 10.938 0.98678 15.693 2.9587 4.755 1.972 8.8235 4.7024 12.205 8.1896 3.3819 3.4872 6.0229 7.626 7.9261 12.416 1.9017 4.7934 2.8533 10.04 2.8533 15.747s-0.9516 10.973-2.8533 15.798c-1.9033 4.8253-4.5443 8.9816-7.9261 12.47-3.3818 3.4872-7.4503 6.1985-12.205 8.1369-4.7551 1.9352-9.986 2.906-15.693 2.906-5.7067 0-10.938-0.97081-15.693-2.906-4.7551-1.9384-8.8235-4.6497-12.205-8.1369-3.3818-3.4888-6.0244-7.6451-7.9261-12.47-1.9017-4.8253-2.8533-10.091-2.8533-15.798zm6.9745 0c0 4.6497 0.74091 8.9816 2.2195 12.997 1.4802 4.0158 3.5926 7.503 6.3406 10.462s6.0771 5.2836 9.9859 6.9745c3.9104 1.6909 8.2966 2.5356 13.157 2.5356s9.2466-0.84468 13.157-2.5356c3.9088-1.6909 7.238-4.0158 9.986-6.9745 2.7463-2.9587 4.8604-6.446 6.3406-10.462 1.4786-4.0158 2.2194-8.3477 2.2194-12.997 0-4.6497-0.74084-8.9832-2.2194-12.999-1.4802-4.0158-3.5942-7.503-6.3406-10.462-2.748-2.9587-6.0771-5.2836-9.986-6.9745-3.9103-1.6909-8.2966-2.5356-13.157-2.5356s-9.2466 0.84467-13.157 2.5356c-3.9088 1.6909-7.2379 4.0158-9.9859 6.9745-2.748 2.9587-4.8604 6.446-6.3406 10.462-1.4786 4.0158-2.2195 8.3493-2.2195 12.999z"/>
<path class="st1" d="m931.65 111.35h8.9816l45.547 65.518h0.21075v-65.518h6.9745v74.818h-8.9832l-45.545-65.518h-0.21075v65.518h-6.9745v-74.818z"/>
<path class="st1" d="m64.366 190.76c-0.31645 0-0.61646-0.15343-0.8014-0.41371l-58.593-82.976c-0.20275-0.28769-0.237-0.6603-0.090414-0.97813l42.437-92.319c0.14658-0.31919 0.45208-0.53564 0.8014-0.56715l101.03-9.3442c0.34796-0.053427 0.6877 0.12192 0.89182 0.41098l58.593 82.975c0.20274 0.28768 0.237 0.6603 0.090408 0.97812l-42.436 92.322c-0.14658 0.31783-0.45207 0.53427-0.80141 0.56715l-101.03 9.3429c-0.030138 0.0027323-0.060274 0.0027323-0.090417 0.0027323zm-57.464-84.061 57.938 82.05 99.9-9.2387 41.962-91.292-57.938-82.05-99.899 9.2388-41.963 91.292zm158.49 73.737h0.024658-0.024658z"/>
<path class="st1" d="m64.014 190.55-16.216-84.426-0.079456-92.297 79.005 23.254 81.924 50.965-60.845 54.084-83.789 48.419zm-15.312-175.41 0.068497 90.892 15.947 82.979 82.513-47.671 59.783-53.156-80.753-50.234-77.559-22.811z"/>
<ellipse class="st1" cx="128.02" cy="38.008" rx="2.9422" ry="2.9474"/>
<path class="st1" d="m128.02 44.078c-3.344 0-6.066-2.7234-6.066-6.0715 0-3.3467 2.722-6.0701 6.066-6.0701 3.344 0 6.0647 2.7234 6.0647 6.0701 0 3.3481-2.7207 6.0715-6.0647 6.0715zm0-6.2468-0.18219 0.17535c0 0.097263 0.082192 0.17672 0.18219 0.17672v-0.35207z"/>
<ellipse class="st1" cx="147.66" cy="141.59" rx="2.9422" ry="2.9474"/>
<path class="st1" d="m147.66 147.66c-3.344 0-6.0646-2.7234-6.0646-6.0715s2.7207-6.0715 6.0646-6.0715 6.066 2.7234 6.066 6.0715-2.722 6.0715-6.066 6.0715zm0-6.2468-0.18082 0.17535c0 0.095886 0.080826 0.17535 0.18082 0.17535v-0.35071z"/>
<ellipse class="st1" cx="65.086" cy="189.78" rx="2.9422" ry="2.9474"/>
<path class="st1" d="m65.086 195.85c-3.344 0-6.0646-2.7234-6.0646-6.0715 0-3.3481 2.7207-6.0715 6.0646-6.0715 3.344 0 6.066 2.7234 6.066 6.0715 1e-7 3.3481-2.722 6.0715-6.066 6.0715zm0-6.2468-0.18083 0.17534c0 0.095902 0.080826 0.17535 0.18083 0.17535v-0.35069z"/>
<ellipse class="st1" cx="48.21" cy="107.01" rx="2.9422" ry="2.9474"/>
<path class="st1" d="m48.211 113.08c-3.344 0-6.066-2.7234-6.066-6.0688 0-3.3481 2.722-6.0715 6.066-6.0715s6.0646 2.7234 6.0646 6.0715c0 3.3454-2.7207 6.0688-6.0646 6.0688zm0-6.2468-0.1822 0.17809c0 0.095902 0.083565 0.17535 0.1822 0.17535v-0.35344z"/>
<ellipse class="st1" cx="207.83" cy="88.26" rx="2.9422" ry="2.9474"/>
<path class="st1" d="m207.83 94.33c-3.344 0-6.066-2.7234-6.066-6.0687 0-3.3481 2.722-6.0715 6.066-6.0715s6.066 2.7234 6.066 6.0715c0 3.3453-2.722 6.0687-6.066 6.0687zm0-6.2468-0.18083 0.17809c0 0.095894 0.080826 0.17535 0.18083 0.17535v-0.35344z"/>
<ellipse class="st1" cx="48.21" cy="14.482" rx="2.9422" ry="2.9474"/>
<path class="st1" d="m48.211 20.553c-3.344 0-6.066-2.7234-6.066-6.0715 0-3.3467 2.722-6.0701 6.066-6.0701s6.0646 2.7234 6.0646 6.0701c0 3.3481-2.7207 6.0715-6.0646 6.0715zm0-6.2468-0.1822 0.17535c0 0.097264 0.082195 0.17672 0.1822 0.17672v-0.35207z"/>
<path class="st1" d="m165.4 181.42c-0.1096 0-0.22057-0.016434-0.32741-0.054794l-77.031-27.193-82.745-46.512c-0.27398-0.15343-0.45892-0.43015-0.49454-0.7425-0.035618-0.31234 0.080825-0.62468 0.31234-0.83565l62.255-57.046 81.401-44.755c0.26851-0.15069 0.59044-0.16165 0.87538-0.035618 0.28084 0.1274 0.48633 0.3781 0.55482 0.67811l18.238 80.176-2.0576 95.362c-0.0068512 0.31508-0.1644 0.6055-0.42331 0.78633-0.16575 0.11508-0.36029 0.17261-0.55755 0.17261zm-157.96-74.806 81.41 45.777 75.598 26.672 2.0521-93.768-17.925-78.668-80.069 43.992-61.066 55.994z"/>
<path class="st1" d="m147.98 141.96-0.4014-0.13699-99.852-34.714 0.32193-0.27946 80.132-69.284 19.799 104.41zm-99.289-35.037 98.648 34.297-19.482-102.75-79.166 68.448z"/>
<path class="st1" d="m87.726 155.08-20.994-106.83 102.66 36.707-81.671 70.126zm-18.402-103.82 19.679 100.14 76.553-65.732-96.231-34.408z"/>
<rect class="st1" transform="matrix(.87183 -.4898 .4898 .87183 -8.2827 32.584)" x="57.138" y="11.888" width="1.964" height="40.46"/>
<polygon class="st1" points="65.913 190.31 64.258 189.25 87.537 152.71 89.192 153.77"/>
<rect class="st1" transform="matrix(.072859 -.99734 .99734 .072859 87.425 267.62)" x="186.67" y="66.555" width="1.9621" height="40.463"/>
<path class="st1" d="m253.7 20.277h16.485v27.898h32.019v-27.898h16.485v74.818h-16.485v-32.335h-32.019v32.335h-16.485v-74.818z"/>
<path class="st1" d="m350.18 63.181-28.11-42.904h20.5l15.852 28.003 16.802-28.003h19.55l-28.11 42.904v31.914h-16.485v-31.914z"/>
<path class="st1" d="m398.15 20.277h27.793c3.8737 0 7.5365 0.35447 10.99 1.057 3.4505 0.70575 6.4619 1.9193 9.0343 3.6453 2.5707 1.7277 4.6129 4.0525 6.1298 6.9745 1.5137 2.9236 2.2721 6.6056 2.2721 11.045 0 4.3686-0.70575 8.0299-2.114 10.989-1.4099 2.9603-3.3467 5.3203-5.8121 7.0799-2.4669 1.7628-5.3889 3.0114-8.7708 3.7523-3.3819 0.73928-7.0464 1.1097-10.99 1.1097h-12.047v29.166h-16.485v-74.818zm16.485 31.701h10.99c1.4802 0 2.906-0.13892 4.2808-0.42154 1.3732-0.28102 2.6042-0.75685 3.698-1.4275 1.0905-0.66743 1.972-1.584 2.641-2.7464 0.66904-1.1624 1.0043-2.625 1.0043-4.3846 0-1.9033-0.44067-3.4362-1.3205-4.5986-0.88141-1.1624-2.0087-2.0598-3.3819-2.6953-1.3732-0.63231-2.906-1.0379-4.597-1.2135-1.6909-0.17564-3.3116-0.26506-4.8604-0.26506h-8.4547v17.752z"/>
<path class="st1" d="m463.25 20.277h50.83v15.217h-34.344v13.949h32.441v15.217h-32.441v15.218h36.246v15.217h-52.732v-74.818z"/>
<path class="st1" d="m527.07 20.277h28.955c3.805 0 7.4136 0.37044 10.832 1.1097 3.4154 0.73928 6.4092 1.9736 8.9816 3.6996 2.5707 1.7261 4.613 4.0509 6.1298 6.9745 1.5137 2.9236 2.2722 6.5689 2.2722 10.938 0 5.282-1.3748 9.7736-4.1227 13.473-2.7463 3.698-6.7621 6.0404-12.046 7.0256l19.02 31.598h-19.761l-15.638-29.905h-8.137v29.905h-16.486v-74.818zm16.486 30.964h9.7209c1.4802 0 3.0466-0.054287 4.7023-0.15967 1.6558-0.10538 3.152-0.42154 4.4916-0.95165 1.338-0.52692 2.4478-1.354 3.3292-2.4813 0.87976-1.1273 1.3205-2.7112 1.3205-4.7566 0-1.9017-0.388-3.4154-1.1624-4.5427-0.77606-1.1273-1.7612-1.9911-2.9587-2.5899-1.1992-0.59718-2.5723-1.0043-4.1212-1.2167-1.5504-0.21077-3.0641-0.31615-4.5443-0.31615h-10.778v17.015z"/>
<path class="st1" d="m594.07 20.277h16.486v59.601h30.539v15.217h-47.025v-74.818z"/>
<path class="st1" d="m648.7 20.277h50.83v15.217h-34.344v13.949h32.441v15.217h-32.441v15.218h36.246v15.217h-52.732v-74.818z"/>
<path class="st1" d="m712.53 20.277h24.729c5.9861 0 11.677 0.67063 17.066 2.0087 5.3889 1.3381 10.091 3.5048 14.107 6.4987 4.0157 2.9955 7.2028 6.8867 9.5644 11.677 2.3599 4.7918 3.5399 10.604 3.5399 17.436 0 6.0596-1.1464 11.396-3.4346 16.01-2.2897 4.6145-5.373 8.4898-9.2466 11.624-3.8752 3.136-8.3477 5.5119-13.42 7.1326-5.0728 1.6207-10.393 2.4302-15.956 2.4302h-26.948v-74.818zm16.486 59.601h8.5584c3.8051 0 7.345-0.38641 10.621-1.1624 3.2748-0.77441 6.1107-2.0614 8.5057-3.8577s4.2808-4.1563 5.654-7.0799c1.3732-2.9236 2.0598-6.4987 2.0598-10.725 0-3.6629-0.68665-6.8515-2.0598-9.5644-1.3732-2.7112-3.2238-4.9482-5.5486-6.7094s-5.0552-3.0817-8.1896-3.9631c-3.1343-0.88139-6.4284-1.3221-9.8806-1.3221h-9.7208v44.384z"/>
<path class="st1" d="m858.36 89.811c-4.8621 2.5356-9.9332 4.3686-15.217 5.4959-5.2852 1.1241-10.674 1.6893-16.168 1.6893-5.8488 0-11.238-0.91652-16.168-2.7464-4.9323-1.833-9.194-4.4549-12.787-7.8735-3.5926-3.4154-6.3932-7.5557-8.4019-12.418-2.0071-4.8604-3.0115-10.285-3.0115-16.274 0-5.9861 1.0044-11.412 3.0115-16.274 2.0087-4.8604 4.8093-8.9991 8.4019-12.416 3.5927-3.417 7.8543-6.0388 12.787-7.8719 4.9307-1.8314 10.32-2.748 16.168-2.748 5.9861 0 11.5 0.72332 16.537 2.1668 5.0361 1.4434 9.4574 3.9279 13.262 7.4503l-11.624 12.681c-2.2562-2.3248-4.7917-4.086-7.6084-5.2852-2.8182-1.1975-6.3406-1.7963-10.567-1.7963-3.524 0-6.711 0.59877-9.5644 1.7963-2.8533 1.1991-5.3011 2.8709-7.3433 5.0201-2.0454 2.1492-3.6118 4.7024-4.7039 7.6611-1.0922 2.9587-1.6367 6.1665-1.6367 9.6155 0 3.5256 0.54449 6.7478 1.6367 9.6698 1.0922 2.9252 2.6585 5.4608 4.7039 7.61 2.0422 2.1492 4.49 3.8226 7.3433 5.0185 2.8534 1.1991 6.0404 1.7963 9.5644 1.7963 3.5927 0 6.6919-0.40557 9.2993-1.2151 2.6059-0.80954 4.6832-1.6382 6.2336-2.4829v-12.153h-13.42v-15.218h29.273v39.101z"/>
<path class="st1" d="m871.36 20.277h50.83v15.217h-34.344v13.949h32.441v15.217h-32.441v15.218h36.246v15.217h-52.732v-74.818z"/>
<path class="st1" d="m935.19 20.277h28.955c3.805 0 7.4136 0.37044 10.832 1.1097 3.4154 0.73928 6.4092 1.9736 8.9816 3.6996 2.5707 1.7261 4.6129 4.0509 6.1298 6.9745 1.5137 2.9236 2.2722 6.5689 2.2722 10.938 0 5.282-1.3748 9.7736-4.1227 13.473-2.7464 3.698-6.7621 6.0404-12.046 7.0256l19.02 31.598h-19.761l-15.638-29.905h-8.1369v29.905h-16.486v-74.818zm16.486 30.964h9.7209c1.4802 0 3.0465-0.054287 4.7023-0.15967s3.1519-0.42154 4.4916-0.95165c1.3381-0.52692 2.4478-1.354 3.3292-2.4813 0.87982-1.1273 1.3205-2.7112 1.3205-4.7566 0-1.9017-0.388-3.4154-1.1624-4.5427-0.776-1.1273-1.7612-1.9911-2.9587-2.5899-1.1991-0.59718-2.5723-1.0043-4.1211-1.2167-1.5504-0.21077-3.0641-0.31615-4.5443-0.31615h-10.778v17.015z"/>
</svg>